<svg width="32" height="32" viewBox="0 0 32 32" fill="none" xmlns="http://www.w3.org/2000/svg">
<path d="M13.135 4H17.1V22.169C15.4075 22.5164 13.6847 22.6956 11.957 22.704C7.11497 22.699 4.59497 20.536 4.59497 16.382C4.59497 12.382 7.26797 9.782 11.411 9.782C11.992 9.77067 12.5719 9.83795 13.135 9.982V4V4ZM13.135 13.142C12.7039 12.9998 12.2518 12.9322 11.798 12.942C9.79797 12.942 8.63497 14.165 8.63497 16.308C8.63497 18.395 9.74197 19.547 11.773 19.547C12.2288 19.5469 12.684 19.5135 13.135 19.447V13.147V13.142Z" fill="#44B78B"/>
<path d="M23.4 10.059V19.159C23.4 22.292 23.165 23.798 22.477 25.097C21.7749 26.4178 20.6267 27.4465 19.237 28L15.559 26.267C16.8952 25.8094 18.0143 24.8727 18.7 23.638C19.266 22.517 19.445 21.218 19.445 17.801V10.059H23.4Z" fill="#44B78B"/>
<path d="M23.405 4.02002H19.441V8.04802H23.405V4.02002Z" fill="#44B78B"/>
</svg>
