<svg width="96" height="25" viewBox="0 0 96 25" fill="none" xmlns="http://www.w3.org/2000/svg">
<path d="M71 0H95V24H71V0Z" fill="#F7DF1E"/>
<path d="M77.3105 20.0561L79.1471 18.9446C79.5014 19.5729 79.8238 20.1044 80.5969 20.1044C81.338 20.1044 81.8052 19.8145 81.8052 18.6869V11.0183H84.0606V18.7188C84.0606 21.0548 82.6913 22.118 80.6936 22.118C78.8894 22.118 77.842 21.1836 77.3104 20.0559" fill="black"/>
<path d="M85.2857 19.8145L87.1221 18.7512C87.6056 19.5407 88.2339 20.1206 89.3454 20.1206C90.2799 20.1206 90.8758 19.6534 90.8758 19.009C90.8758 18.2357 90.2637 17.9618 89.2326 17.5109L88.6689 17.269C87.0417 16.5764 85.9622 15.7065 85.9622 13.8699C85.9622 12.1783 87.251 10.8894 89.2649 10.8894C90.6987 10.8894 91.7298 11.3889 92.4708 12.6938L90.7147 13.8215C90.3281 13.1288 89.9093 12.855 89.2649 12.855C88.6044 12.855 88.1855 13.2738 88.1855 13.8215C88.1855 14.4981 88.6044 14.7721 89.5709 15.191L90.1347 15.4326C92.0519 16.2543 93.1313 17.0919 93.1313 18.9768C93.1313 21.0068 91.5364 22.1183 89.3938 22.1183C87.2995 22.1183 85.9462 21.1195 85.2857 19.8145" fill="black"/>
<path d="M0.446965 20.5172V12.8736H9.99045V12.4265H0.446965V5.45331H10.5938V5.00635H0V20.9642H10.6832V20.5172H0.447099H0.446965ZM19.288 9.47627L15.3322 14.6838L11.4655 9.4764H10.8844L15.0639 15.0192L10.4819 20.964H11.0184L15.3319 15.3542L19.6678 20.964H20.2265L15.6225 15.0189L19.8242 9.47613H19.2879L19.288 9.47627ZM21.5677 24.8978V17.7459H21.6123C21.8806 18.7889 22.4096 19.627 23.1993 20.2603C23.989 20.8935 24.9946 21.2102 26.2164 21.2102C27.0061 21.2102 27.7065 21.05 28.3174 20.7297C28.9283 20.4093 29.4385 19.9735 29.8483 19.4222C30.258 18.8709 30.571 18.2302 30.7871 17.5C31.003 16.77 31.1112 16.0026 31.1112 15.1981C31.1112 14.3339 30.9993 13.5366 30.7758 12.8066C30.5523 12.0765 30.2282 11.4432 29.8037 10.9069C29.379 10.3705 28.8649 9.95315 28.2614 9.65535C27.658 9.35728 26.9763 9.20825 26.2164 9.20825C25.6353 9.20825 25.0952 9.29397 24.5961 9.46527C24.0969 9.6367 23.6537 9.8787 23.2663 10.1917C22.8767 10.507 22.5375 10.8801 22.2605 11.2979C21.9775 11.7226 21.7614 12.1882 21.6123 12.6949H21.5677V9.47627H21.1207V24.8978H21.5677ZM26.2164 20.7853C24.816 20.7853 23.6909 20.3048 22.8416 19.3438C21.9924 18.3828 21.5677 17.0008 21.5677 15.1979C21.5677 14.4528 21.672 13.7451 21.8806 13.0747C22.0892 12.4042 22.3909 11.8156 22.7857 11.3091C23.1806 10.8024 23.6686 10.4001 24.2496 10.1022C24.8307 9.80411 25.4864 9.65508 26.2164 9.65508C26.9614 9.65508 27.6134 9.80411 28.1721 10.1022C28.7308 10.4001 29.1928 10.8062 29.5578 11.3202C29.9228 11.8342 30.1985 12.4229 30.3848 13.0858C30.571 13.7489 30.6641 14.4528 30.6641 15.1979C30.6641 15.8685 30.5785 16.5353 30.407 17.1982C30.2357 17.8613 29.9712 18.4573 29.6136 18.9863C29.2561 19.5151 28.798 19.9472 28.2392 20.2826C27.6803 20.6178 27.0061 20.7853 26.2164 20.7853ZM33.5696 20.9642V14.4604C33.5696 13.8346 33.6589 13.2236 33.8379 12.6277C34.0166 12.0317 34.2922 11.5064 34.6647 11.052C35.0373 10.5976 35.5103 10.2399 36.084 9.97917C36.6576 9.7184 37.3393 9.61041 38.129 9.65508V9.20811C37.4435 9.19336 36.8439 9.26767 36.3299 9.4316C35.8157 9.59552 35.3725 9.819 35 10.1022C34.6275 10.3852 34.3295 10.7167 34.106 11.0967C33.8827 11.4761 33.717 11.8866 33.6143 12.3147H33.5696V9.47627H33.1226V20.9643H33.5696V20.9642ZM38.6877 15.3096H48.2981C48.328 14.5199 48.2498 13.7601 48.0635 13.03C47.8773 12.2998 47.5793 11.6517 47.1696 11.0856C46.7598 10.5194 46.2308 10.0649 45.5827 9.72215C44.9345 9.37942 44.1634 9.20811 43.2695 9.20811C42.6287 9.20811 42.0029 9.34226 41.392 9.61054C40.7811 9.8787 40.2447 10.2697 39.7829 10.7838C39.321 11.2978 38.9485 11.9273 38.6654 12.6725C38.3824 13.4174 38.2407 14.2667 38.2407 15.2203C38.2407 16.0695 38.3376 16.863 38.5313 17.6005C38.725 18.338 39.0229 18.9788 39.4252 19.5227C39.8277 20.0665 40.3454 20.4874 40.9786 20.7853C41.6118 21.0834 42.3754 21.2249 43.2695 21.21C44.5806 21.21 45.6833 20.8411 46.5772 20.1038C47.4713 19.3661 48.0002 18.3269 48.1641 16.9859H47.7172C47.5234 18.2525 47.0279 19.2023 46.2308 19.8355C45.4336 20.4688 44.4317 20.7853 43.2247 20.7853C42.4052 20.7853 41.7124 20.6438 41.1461 20.3608C40.5801 20.0777 40.1181 19.6902 39.7604 19.1986C39.403 18.7068 39.1384 18.1294 38.9671 17.4664C38.7957 16.8034 38.7026 16.0844 38.6877 15.3096ZM47.8512 14.8627H38.6878C38.7324 14.0581 38.8814 13.3354 39.1347 12.6948C39.3881 12.054 39.7195 11.5064 40.1293 11.052C40.539 10.5976 41.0159 10.2512 41.5597 10.0127C42.1035 9.77433 42.6884 9.65508 43.3142 9.65508C44.0592 9.65508 44.7146 9.79298 45.281 10.0686C45.8471 10.3443 46.3202 10.7206 46.7002 11.1973C47.0801 11.6741 47.3669 12.2292 47.5606 12.8623C47.7543 13.4956 47.8512 14.1624 47.8512 14.8627ZM57.5735 12.8736H58.0204C58.0204 11.5921 57.6479 10.6609 56.903 10.0798C56.1578 9.49867 55.1447 9.20811 53.8633 9.20811C53.1481 9.20811 52.5447 9.29759 52.0529 9.4764C51.5613 9.65508 51.159 9.88607 50.846 10.1691C50.5332 10.4522 50.3097 10.7651 50.1756 11.1079C50.0415 11.4506 49.9744 11.7784 49.9744 12.0913C49.9744 12.717 50.0861 13.2162 50.3097 13.5887C50.5332 13.9612 50.8833 14.2518 51.3601 14.4604C51.6879 14.6093 52.0603 14.7434 52.4776 14.8628C52.8948 14.9819 53.3791 15.1085 53.9304 15.2425C54.422 15.3619 54.9063 15.4811 55.3832 15.6002C55.8599 15.7194 56.2809 15.8796 56.6459 16.0807C57.011 16.2819 57.3089 16.5389 57.5399 16.8519C57.7708 17.1647 57.8863 17.5745 57.8863 18.081C57.8863 18.5728 57.7709 18.99 57.5399 19.3326C57.3109 19.6735 57.0095 19.9597 56.6571 20.1708C56.2995 20.3868 55.9008 20.5432 55.4614 20.6401C55.0218 20.7369 54.5935 20.7853 54.1763 20.7853C52.8204 20.7853 51.781 20.4837 51.0584 19.8803C50.3358 19.2768 49.9745 18.3269 49.9745 17.0305H49.5274C49.5274 18.4759 49.9186 19.5338 50.7008 20.2044C51.4831 20.8748 52.6415 21.21 54.1763 21.21C54.6679 21.21 55.1633 21.1541 55.6626 21.0424C56.1616 20.9306 56.6087 20.7482 57.0035 20.4948C57.3949 20.245 57.7237 19.9086 57.9645 19.5115C58.2104 19.1091 58.3334 18.6175 58.3334 18.0363C58.3334 17.485 58.2253 17.0381 58.0093 16.6953C57.7932 16.3527 57.5101 16.0695 57.1599 15.8461C56.8098 15.6226 56.415 15.4475 55.9754 15.3209C55.5333 15.1935 55.09 15.0705 54.6455 14.952C54.0985 14.8085 53.5509 14.6669 53.0028 14.5274C52.5336 14.4082 52.0977 14.2667 51.6954 14.1027C51.308 13.9388 50.9988 13.7042 50.7678 13.3987C50.5368 13.0933 50.4215 12.6575 50.4215 12.0913C50.4215 11.987 50.4513 11.8007 50.5108 11.5325C50.5704 11.2643 50.712 10.9924 50.9355 10.7167C51.159 10.4412 51.5016 10.1953 51.9636 9.97917C52.4254 9.7632 53.0587 9.65508 53.8633 9.65508C54.4147 9.65508 54.9174 9.71477 55.3719 9.83389C55.8264 9.95315 56.2175 10.1431 56.5452 10.4039C56.8731 10.6646 57.1264 10.9961 57.3052 11.3984C57.484 11.8008 57.5735 12.2925 57.5735 12.8736ZM67.9214 12.8736H68.3684C68.3684 11.5921 67.996 10.6609 67.251 10.0798C66.5059 9.49867 65.4927 9.20811 64.2113 9.20811C63.4962 9.20811 62.8926 9.29759 62.401 9.4764C61.9092 9.65508 61.5069 9.88607 61.1941 10.1691C60.8812 10.4522 60.6577 10.7651 60.5235 11.1079C60.3894 11.4506 60.3225 11.7784 60.3225 12.0913C60.3225 12.717 60.4342 13.2162 60.6578 13.5887C60.8812 13.9612 61.2314 14.2518 61.7082 14.4604C62.036 14.6093 62.4084 14.7434 62.8256 14.8628C63.2428 14.9819 63.727 15.1085 64.2783 15.2425C64.7701 15.3619 65.2544 15.4811 65.7311 15.6002C66.208 15.7194 66.6288 15.8796 66.9939 16.0807C67.3589 16.2819 67.657 16.5389 67.8879 16.8519C68.1189 17.1647 68.2344 17.5745 68.2344 18.081C68.2344 18.5728 68.1189 18.99 67.8879 19.3326C67.6589 19.6735 67.3575 19.9597 67.0052 20.1708C66.6474 20.3868 66.2489 20.5432 65.8093 20.6401C65.3699 20.7369 64.9414 20.7853 64.5242 20.7853C63.1683 20.7853 62.1291 20.4837 61.4065 19.8803C60.6837 19.2768 60.3225 18.3269 60.3225 17.0305H59.8755C59.8755 18.4759 60.2665 19.5338 61.0488 20.2044C61.831 20.8748 62.9895 21.21 64.5242 21.21C65.016 21.21 65.5114 21.1541 66.0105 21.0424C66.5095 20.9306 66.9566 20.7482 67.3516 20.4948C67.743 20.245 68.0718 19.9086 68.3126 19.5115C68.5584 19.1091 68.6813 18.6175 68.6813 18.0363C68.6813 17.485 68.5733 17.0381 68.3572 16.6953C68.1413 16.3527 67.8582 16.0695 67.508 15.8461C67.1579 15.6226 66.7629 15.4475 66.3235 15.3209C65.8814 15.1935 65.4381 15.0705 64.9936 14.952C64.4465 14.8085 63.899 14.6669 63.3509 14.5274C62.8815 14.4082 62.4457 14.2667 62.0434 14.1027C61.656 13.9388 61.3468 13.7042 61.1159 13.3987C60.8849 13.0933 60.7694 12.6575 60.7694 12.0913C60.7694 11.987 60.7992 11.8007 60.8589 11.5325C60.9185 11.2643 61.0601 10.9924 61.2835 10.7167C61.5069 10.4412 61.8497 10.1953 62.3115 9.97917C62.7735 9.7632 63.4067 9.65508 64.2114 9.65508C64.7627 9.65508 65.2655 9.71477 65.72 9.83389C66.1745 9.95315 66.5655 10.1431 66.8933 10.4039C67.2212 10.6646 67.4744 10.9961 67.6532 11.3984C67.8321 11.8008 67.9215 12.2925 67.9215 12.8736H67.9214Z" fill="#222222"/>
</svg>
