<svg width="22" height="32" viewBox="0 0 22 32" fill="none" xmlns="http://www.w3.org/2000/svg">
<path d="M10.1947 31.9807C7.543 31.8672 5.69936 31.5146 4.22798 30.8394C4.01321 30.7409 4.04543 30.8068 3.8138 29.9915C3.41038 28.5716 3.10375 27.285 2.77526 25.6341C2.60873 24.7972 2.53075 24.4473 2.1462 22.8119C1.45615 19.8773 1.19407 18.5279 1.04327 17.1334C1.00508 16.7802 1.07383 16.2973 1.18186 16.1599C1.2458 16.0786 1.2471 15.8711 1.18377 15.8545C1.14682 15.8449 1.13766 15.8136 1.12414 15.6514C1.11292 15.5167 1.09545 15.4436 1.06538 15.4053C1.03637 15.3684 1.02259 15.314 1.02259 15.2364C1.02259 15.1734 1.01235 15.1155 0.999828 15.1077C0.986154 15.0993 0.977069 14.9448 0.977069 14.7208C0.977069 14.4968 0.967983 14.3424 0.954309 14.3339C0.941791 14.3262 0.931549 14.3403 0.931549 14.3654C0.931549 14.6459 0.729937 14.135 0.612411 13.5566C0.310808 12.0722 -0.184193 10.5973 -0.0703207 11.5222C-0.0302596 11.8476 0.0435642 12.1675 0.25551 12.9342C0.5045 13.8349 0.617928 14.4726 0.567289 14.6871C0.494925 14.9937 0.0273191 13.1528 -0.242185 11.5003C-0.310578 11.081 -0.413273 10.4511 -0.470395 10.1006C-0.598031 9.31746 -0.716756 8.72931 -0.878973 8.0766C-1.04134 7.42326 -1.03676 7.31729 -0.834975 7.06031C-0.41904 6.53061 0.801507 6.11882 0.933447 6.46367C1.02388 6.70003 0.75735 6.86377 0.0325434 7.01712C-0.595651 7.15003 -0.653754 7.24507 -0.312733 7.58185C0.0282104 7.91856 2.00575 8.2195 4.3455 8.29073C8.48946 8.41689 11.1166 8.45011 11.8562 8.38569C12.0377 8.36989 12.2958 8.35098 12.4297 8.34369C12.6731 8.33042 12.6731 8.33042 12.662 8.271C12.6537 8.22599 12.6731 8.18396 12.742 8.09778C12.7921 8.03519 12.8668 7.93789 12.9081 7.88156C13.0484 7.68995 13.2842 7.61691 13.382 7.73474C13.5043 7.88215 13.3963 8.22335 13.1942 8.32787C13.1008 8.37613 13.1276 8.39099 13.3431 8.41043C13.4453 8.41966 13.5877 8.43339 13.6594 8.44096C13.8763 8.46383 14.0416 8.38548 13.9505 8.30302C13.7498 8.12134 14.1275 7.75491 14.7125 7.56381C14.8001 7.53519 14.8816 7.5028 14.8935 7.49183C14.9053 7.48086 14.9313 7.47189 14.9511 7.47189C15.0257 7.47189 15.2393 7.30638 15.4767 7.06454C15.6118 6.92692 15.7635 6.78831 15.8139 6.75652C15.8642 6.72473 15.9165 6.67809 15.93 6.65287C15.9709 6.57638 15.8912 6.59699 15.7139 6.70869C15.6263 6.76393 15.5034 6.84041 15.4408 6.87866C15.3109 6.95807 15.0217 7.1498 14.7436 7.34099C14.6389 7.41295 14.5276 7.48917 14.4963 7.51037C14.465 7.53157 14.4208 7.5645 14.3981 7.58355C14.3478 7.62575 14.1142 7.63588 13.9842 7.6015C13.6467 7.51224 13.6224 7.21593 13.9105 6.70135C14.0366 6.47606 14.3842 6.01527 14.428 6.01527C14.4389 6.01527 14.4766 5.9725 14.5119 5.92023C14.5757 5.82563 14.6161 5.79508 14.8191 5.68796C14.9652 5.61093 15.0505 5.60255 15.0737 5.66298C15.0875 5.69887 14.9851 5.92413 14.8698 6.11168C14.6281 6.50481 14.607 6.5448 14.6296 6.56739C14.6619 6.59963 14.9079 6.45198 14.9444 6.37852C14.9597 6.34772 15.0006 6.26135 15.0353 6.18657C15.27 5.68071 15.8318 5.6309 16.1774 6.08531C16.2687 6.20541 16.2942 6.21902 16.2947 6.14803C16.2962 5.92591 16.6055 5.74367 16.9828 5.74254C17.1392 5.74208 17.1494 5.71649 17.014 5.66477C16.8289 5.59407 16.8183 5.55871 16.9403 5.41921C17.1095 5.22582 17.0292 5.18823 16.7078 5.31035C16.3977 5.42817 16.0963 5.49196 15.8902 5.48338C15.7807 5.47883 15.6666 5.48431 15.6365 5.49557C15.6065 5.50683 15.5262 5.52079 15.4581 5.52658C15.3901 5.53237 15.3261 5.54222 15.316 5.54848C15.3059 5.55473 15.2479 5.55307 15.1871 5.54477C14.8493 5.49866 14.8807 5.20577 15.3037 4.45623C15.3602 4.35609 15.4382 4.20758 15.477 4.12622C15.5158 4.04485 15.6735 3.72224 15.8275 3.40929C15.9814 3.09634 16.1497 2.74812 16.2014 2.63546C16.2531 2.5228 16.3207 2.38197 16.3517 2.32251C16.3827 2.26304 16.4081 2.2041 16.4081 2.19153C16.4081 2.17895 16.4343 2.11495 16.4664 2.04929C16.6733 1.62548 17.0033 0.579335 16.9631 0.474573C16.9549 0.453316 16.9617 0.439157 16.9802 0.439157C16.997 0.439157 17.0621 0.405015 17.1248 0.363285C17.1875 0.321555 17.2667 0.270286 17.3008 0.249353C17.3517 0.218129 17.3605 0.199721 17.3499 0.146873C17.2912 -0.14667 17.8333 0.040964 18.5077 0.54765C19.4999 1.29298 20.3806 2.55243 21.1165 4.27829C21.7705 5.81211 21.9422 8.41343 21.5181 10.3624C21.2208 11.7287 21.0184 13.8256 20.8009 17.7934C20.6625 20.3196 20.5834 21.4596 20.4692 22.5729C20.4383 22.8733 20.398 23.324 20.3796 23.5743C20.2869 24.8313 20.1472 25.9983 19.9097 27.5004C19.8285 28.0139 19.8171 28.1345 19.8109 28.5473C19.7875 30.1037 19.217 30.9875 18.1351 31.1434C18.0302 31.1585 17.8112 31.2099 17.6485 31.2577C16.3294 31.645 14.9222 31.8503 12.9942 31.9369C11.4306 32.0071 10.9784 32.0142 10.1947 31.9807ZM4.82333 29.6267C4.54256 28.4818 4.37831 27.9383 4.1808 27.5004C3.96938 27.0316 3.92134 26.9695 3.94745 27.1988C4.06749 28.2527 4.35677 29.23 4.82762 30.1725C5.0759 30.6695 5.0758 30.6561 4.82333 29.6267ZM4.33115 30.3852C4.4131 30.0794 4.28204 29.4362 3.90043 28.2713C3.68277 27.6069 3.52237 27.0291 3.49216 26.8005C3.47236 26.6507 3.45178 26.6381 3.36658 26.7233C3.22992 26.8599 3.27124 27.1427 3.57901 28.1771C3.66183 28.4555 3.74131 28.773 3.75564 28.8827C3.83985 29.5274 4.26416 30.6351 4.33115 30.3852ZM12.0484 26.9957C12.4637 26.7206 12.4093 25.9189 11.9579 25.6632C11.5516 25.4331 11.3333 25.9346 11.5059 26.7021C11.5832 27.0463 11.7972 27.1621 12.0484 26.9957ZM10.8243 26.9351C11.134 26.7763 11.2368 26.2465 11.0428 25.8095C10.8515 25.3787 10.4677 25.597 10.3986 26.176C10.3886 26.2597 10.3649 26.4266 10.3461 26.5468C10.2785 26.9776 10.4576 27.1231 10.8243 26.9351ZM3.28856 26.1429C3.33821 25.7456 3.23524 25.1715 2.90212 23.9882C2.80763 23.6526 2.69867 23.2173 2.66 23.021C2.53357 22.3789 2.34213 22.0661 2.43459 22.6526C2.47947 22.9373 2.73283 24.2364 2.78745 24.462C2.81777 24.5871 2.86898 24.9029 2.90126 25.1636C2.98165 25.813 3.05216 26.0703 3.19083 26.2201C3.25956 26.2944 3.27074 26.2856 3.28856 26.1429ZM8.55597 23.9468C10.2897 23.5496 10.8487 21.3816 9.48034 20.3621C8.59801 19.7047 8.04545 19.657 6.66698 20.1189C6.38533 20.2132 6.13177 20.305 6.10352 20.3228C6.00307 20.386 5.84766 20.6101 5.84765 20.6918C5.84764 20.7337 5.80743 20.8678 5.75828 20.9897C5.1071 22.6048 6.76503 24.3572 8.55597 23.9468ZM6.35972 22.7061C5.67772 22.6043 5.53073 22.0236 6.05275 21.4934C6.43196 21.1082 6.87352 21.0749 7.19768 21.4069C7.83911 22.0639 7.33132 22.8512 6.35972 22.7061ZM15.0068 23.6276C16.1977 23.4276 16.9444 22.0585 16.4533 20.9755C15.3035 18.4395 11.1738 19.6577 12.0795 22.2658C12.4667 23.3808 13.5304 23.8757 15.0068 23.6276ZM12.6869 22.5752C12.1561 22.4445 11.9839 21.9593 12.2683 21.3959C12.624 20.6914 13.3849 20.6997 13.7603 21.4122C13.987 21.8425 13.9356 21.9859 13.5679 21.9488C13.2372 21.9155 13.1287 21.9628 13.2904 22.0697C13.4082 22.1477 13.5588 22.2834 13.5879 22.3377C13.6787 22.5073 13.0667 22.6687 12.6869 22.5752ZM7.09072 13.1656C7.17973 13.1527 7.24288 13.122 7.35842 13.0357C7.4416 12.9736 7.57353 12.8759 7.65161 12.8186C8.35559 12.302 8.58203 12.1209 8.84052 11.868C8.92815 11.7823 9.1842 11.5513 9.40952 11.3548C9.63484 11.1582 9.86124 10.9595 9.91263 10.9131C9.96403 10.8668 10.0562 10.7846 10.1175 10.7303C10.3097 10.5602 10.65 10.2491 10.9117 10.0044C11.2188 9.71714 11.8826 9.04574 11.878 9.02704C11.8669 8.98237 11.6711 8.945 11.4351 8.94252C11.1901 8.93994 11.1848 8.93878 11.1866 8.88815C11.1891 8.81949 11.192 8.81985 10.5247 8.80444C5.18717 8.68119 1.61064 8.49714 -0.322391 8.24623C-0.54753 8.21701 -0.570587 8.21772 -0.570587 8.25389C-0.570587 8.31718 -0.386309 8.49223 -0.240652 8.56731C-0.0573642 8.66179 -0.0546013 8.70319 -0.229457 8.73505C-0.416922 8.7692 -0.41127 8.74706 -0.33767 9.15893C-0.0424162 10.8112 0.391652 11.1852 1.30802 10.577C1.83504 10.2271 5.2121 9.86482 7.44081 9.91898C7.82335 9.92828 8.08712 9.9243 8.21463 9.90732C8.32104 9.89316 8.46646 9.8762 8.5378 9.86965C8.60914 9.86309 8.67953 9.84324 8.69422 9.82555C8.7089 9.80785 8.75997 9.79337 8.80769 9.79337C8.85541 9.79337 8.92329 9.78153 8.95853 9.76705C9.19978 9.66796 11.0368 9.6299 11.0368 9.724C11.0368 9.74051 10.9423 9.83062 10.723 10.0231C10.6718 10.0681 10.4065 10.2728 10.1335 10.4781C9.71951 10.7893 9.44301 11.0042 9.31848 11.1114C9.30596 11.1221 9.16908 11.2657 9.01429 11.4305C8.37773 12.1079 7.71296 12.5742 7.14166 12.7438C7.06176 12.7675 7.02939 12.7908 7.01113 12.8377C6.98037 12.9167 6.88108 13.0934 6.84996 13.1245C6.79816 13.1763 6.8235 13.213 6.90027 13.1975C6.94095 13.1893 7.02665 13.1749 7.09072 13.1656ZM8.1805 12.957C8.18906 12.9431 8.36163 12.9342 8.62211 12.9342C9.12661 12.9342 9.53469 12.9123 9.53469 12.8852C9.53469 12.8746 9.52006 12.8659 9.50218 12.8659C9.40525 12.8659 9.37498 12.7527 9.43614 12.619C9.51203 12.4531 9.58282 12.3733 10.3582 11.58C10.664 11.2671 10.9557 10.9598 11.0063 10.8972C11.444 10.3557 11.797 9.84043 11.7574 9.80078C11.7403 9.78368 11.4043 10.0981 11.353 10.1793C11.3328 10.2111 11.2355 10.3171 11.1367 10.4148C10.9431 10.6063 10.9319 10.6188 10.5689 11.0451C10.4357 11.2016 10.2977 11.3604 10.2622 11.3979C10.2267 11.4355 10.1471 11.5225 10.0853 11.5914C9.88182 11.8179 9.50826 12.1796 9.34124 12.3119C8.96603 12.6089 8.38643 12.9017 8.20325 12.8867C8.14145 12.8816 8.0098 12.9133 8.0098 12.9333C8.0098 12.9813 8.15317 13.0012 8.1805 12.957ZM13.4009 12.8674C13.4299 12.8238 13.4543 12.8204 13.7423 12.8201C14.165 12.8196 14.3912 12.7316 14.2342 12.6288C14.2022 12.6078 14.1776 12.5698 14.1774 12.5411C14.1767 12.3647 14.0464 12.2191 13.9743 12.314C13.7646 12.59 13.7254 12.6309 13.6198 12.6838C12.9334 13.0279 12.5258 12.2368 12.869 11.2267C13.1649 10.3555 13.1886 10.2767 13.2586 9.92993C13.2924 9.76195 13.261 9.43168 13.2104 9.42311C13.1035 9.40505 12.6097 10.9684 12.4033 11.9783C12.3145 12.4132 12.3126 12.4177 12.1927 12.4936C11.7717 12.7603 11.6028 12.6371 11.7358 12.1604C11.7775 12.0112 11.9109 11.6416 11.972 11.5063C11.9959 11.4532 12.0155 11.404 12.0155 11.3969C12.0155 11.3898 12.0365 11.336 12.0623 11.2772C12.3618 10.5927 12.4323 10.3433 12.3341 10.315C12.0512 10.2335 11.6623 10.4508 11.4925 10.7854C11.474 10.8219 11.4358 10.8896 11.4076 10.9359C11.3434 11.0414 11.2315 11.2487 11.0416 11.6141C10.7829 12.1122 10.7258 12.2072 10.5514 12.4306C10.3665 12.6673 10.1741 12.7831 9.86471 12.8439C9.64355 12.8874 9.64718 12.8986 9.88747 12.9142C10.5116 12.9547 13.3682 12.9166 13.4009 12.8674ZM10.8367 12.751C10.7392 12.7119 10.6892 12.5084 10.7435 12.372C10.8509 12.1024 10.9951 11.8781 11.4941 11.2045C11.6007 11.0605 11.7268 10.8838 11.7743 10.8119C12.0274 10.4281 12.0653 11.1064 11.8223 11.671C11.5626 12.2743 11.1361 12.7893 10.9095 12.7734C10.8981 12.7726 10.8654 12.7626 10.8367 12.751ZM16.8813 12.6593C17.008 12.6452 17.1176 12.6209 17.1382 12.6024C17.163 12.58 17.2312 12.57 17.3588 12.57C17.4603 12.57 17.5497 12.5598 17.5575 12.5473C17.5652 12.5348 17.5902 12.5245 17.6131 12.5245C17.651 12.5245 17.6955 12.4388 17.6705 12.4138C17.6648 12.4081 17.6063 12.4154 17.5405 12.4301C17.4242 12.4561 17.3243 12.4715 17.1137 12.4959C16.8341 12.5284 16.0547 12.5066 15.8401 12.4604C15.7648 12.4441 15.7605 12.4376 15.7364 12.3046C15.693 12.0646 15.5658 11.9518 15.403 12.0089C15.242 12.0654 15.2329 12.095 15.3609 12.1462C15.4538 12.1834 15.5432 12.2569 15.5432 12.2961C15.5432 12.3378 15.4019 12.479 15.3601 12.479C15.3371 12.479 15.3126 12.4882 15.3056 12.4995C15.2902 12.5245 15.0226 12.6074 14.8889 12.6287C14.6375 12.6688 14.866 12.6838 15.7262 12.6838C16.2426 12.6838 16.7591 12.6729 16.8813 12.6593ZM18.3604 11.4216C18.483 11.4008 18.6158 11.2832 18.6158 11.1954C18.6158 11.1297 18.564 11.095 18.5188 11.1304C18.4906 11.1524 18.3161 11.1984 18.2516 11.2008C18.2329 11.2015 18.1743 11.209 18.1215 11.2175C17.7724 11.2739 16.8013 10.9661 16.3471 10.6551C16.2948 10.6193 16.246 10.59 16.2388 10.59C16.2175 10.59 15.9928 10.4302 15.9245 10.3666C15.689 10.1474 16.1292 10.1262 16.704 10.3291C17.0674 10.4574 17.1152 10.4759 17.2128 10.5263C17.3634 10.6041 17.381 10.6117 17.5415 10.6684C17.9113 10.7992 17.942 10.768 17.6485 10.5595C17.2115 10.249 16.7465 10.0567 16.5721 10.1142C16.3831 10.1766 15.9512 10.064 15.5433 9.84587C14.8125 9.45523 14.5361 9.38439 14.7854 9.65164C15.1193 10.0098 15.5525 10.4093 15.8256 10.6112C15.9953 10.7367 16.2269 10.8949 16.2715 10.9159C16.2903 10.9247 16.3518 10.9587 16.4081 10.9914C16.5394 11.0677 16.974 11.263 17.0852 11.2957C17.3024 11.3595 17.411 11.3851 17.5251 11.3996C17.593 11.4082 17.661 11.4219 17.6764 11.4299C17.713 11.4492 18.2354 11.4429 18.3604 11.4216ZM15.6798 8.07102C15.7361 8.06625 15.8283 8.05767 15.8846 8.05198C15.9941 8.04091 16.3321 7.97256 16.556 7.91619C16.6311 7.89729 16.9538 7.84611 17.273 7.80247C18.4531 7.64112 18.8023 7.50956 19.0955 7.11578C19.2239 6.94332 19.2245 6.92121 19.1059 6.69144C18.8687 6.23164 19.1177 6.08998 19.6741 6.36823C19.8692 6.46577 19.8676 6.46576 19.8676 6.36939C19.8676 6.28193 19.8502 6.26547 19.7328 6.24137C19.0933 6.11017 18.7978 5.62665 19.1336 5.26078C19.1939 5.19504 19.189 5.12276 19.103 4.8147C19.0652 4.67903 19.0433 4.67125 18.9332 4.75435C18.89 4.78688 18.8104 4.83296 18.7562 4.85674C18.6577 4.89999 18.6577 4.89999 18.7585 5.00079C19.0798 5.32215 18.6734 5.71991 17.9785 5.7642C17.5233 5.7932 17.4839 5.80724 17.6899 5.8671C18.0379 5.96827 18.0899 6.18481 17.8001 6.32571C17.5301 6.45693 17.5422 6.46696 17.8777 6.39042C18.4159 6.26767 18.8299 6.28557 18.882 6.43386C19.0256 6.84236 18.746 7.26086 18.1834 7.47957C18.0488 7.53189 17.9682 7.55637 17.694 7.62832C17.5554 7.66471 17.1552 7.72589 17.1421 7.71272C17.1357 7.70632 17.1134 7.7102 17.0926 7.72134C17.0718 7.73249 16.9732 7.74834 16.8737 7.75658C16.2909 7.80478 15.9835 7.84537 15.3333 7.96001C14.9733 8.02348 14.9287 8.03508 14.9287 8.0653C14.9287 8.08737 15.3754 8.1072 15.4977 8.09055C15.5415 8.08459 15.6235 8.07581 15.6798 8.07102ZM17.6222 4.83623C17.7118 4.77621 17.9029 4.64913 18.047 4.55384C18.502 4.25286 18.8118 3.92855 18.8764 3.68554C18.8934 3.62123 18.9141 3.55193 18.9223 3.53155C18.9473 3.46916 18.8636 3.24356 18.8337 3.29286C18.6962 3.51957 18.5927 3.64929 18.3888 3.85076C18.0503 4.18512 17.9269 4.30097 17.8859 4.32314C17.8181 4.35967 17.4513 4.77498 17.4191 4.85162C17.3555 5.00267 17.3761 5.00112 17.6222 4.83623ZM1.38674 6.51925C1.38674 6.49602 1.42105 6.43201 1.46297 6.37701C1.56823 6.23893 1.61434 6.14336 1.61434 6.06326C1.61434 5.97429 1.584 5.98573 2.12909 5.86925C3.34865 5.60866 3.87102 5.54167 4.80464 5.52617C9.72928 5.4444 11.1747 5.39921 12.7399 5.2781C13.1382 5.24729 13.1375 5.24708 13.2469 5.41955C13.4833 5.7923 12.8139 6.03731 11.7765 5.95777C11.6764 5.95009 11.2001 5.94085 10.7182 5.93723C9.84195 5.93064 9.84195 5.93064 9.36612 5.83482C8.67152 5.69494 8.46812 5.70306 8.26814 5.87864C8.17435 5.96098 8.20434 5.96069 7.97953 5.88145C7.41117 5.68111 6.70805 5.66884 5.57452 5.83949C5.19272 5.89696 4.7472 5.95527 4.58447 5.96907C3.73898 6.04076 2.94607 6.18728 1.9289 6.4598C1.50603 6.57309 1.38674 6.58617 1.38674 6.51925Z" fill="#F3D71D"/>
<path d="M10.1947 31.9806C7.543 31.8672 5.69936 31.5145 4.22798 30.8394C4.01321 30.7408 4.04543 30.8068 3.8138 29.9915C3.41038 28.5715 3.10375 27.285 2.77526 25.6341C2.60873 24.7971 2.53075 24.4473 2.1462 22.8119C1.45615 19.8772 1.19407 18.5279 1.04327 17.1333C1.00508 16.7802 1.07383 16.2972 1.18186 16.1599C1.2458 16.0786 1.2471 15.8711 1.18377 15.8545C1.14682 15.8448 1.13766 15.8136 1.12414 15.6514C1.11292 15.5167 1.09545 15.4435 1.06538 15.4053C1.03637 15.3684 1.02259 15.314 1.02259 15.2363C1.02259 15.1733 1.01235 15.1155 0.999828 15.1077C0.986154 15.0993 0.977069 14.9448 0.977069 14.7208C0.977069 14.4968 0.967983 14.3423 0.954309 14.3339C0.941791 14.3262 0.931549 14.3403 0.931549 14.3653C0.931549 14.6459 0.729937 14.1349 0.612411 13.5565C0.310808 12.0722 -0.184193 10.5972 -0.0703207 11.5222C-0.0302596 11.8476 0.0435642 12.1675 0.25551 12.9342C0.5045 13.8349 0.617928 14.4726 0.567289 14.6871C0.494925 14.9937 0.0273191 13.1528 -0.242185 11.5003C-0.310578 11.081 -0.413273 10.4511 -0.470395 10.1006C-0.598031 9.31744 -0.716756 8.72929 -0.878973 8.07658C-1.04134 7.42324 -1.03676 7.31727 -0.834975 7.0603C-0.41904 6.5306 0.801507 6.1188 0.933447 6.46365C1.02388 6.70001 0.75735 6.86375 0.0325434 7.0171C-0.595651 7.15002 -0.653754 7.24505 -0.312733 7.58183C0.0282104 7.91854 2.00575 8.21948 4.3455 8.29071C8.48946 8.41687 11.1166 8.45009 11.8562 8.38568C12.0377 8.36987 12.2958 8.35096 12.4297 8.34367C12.6731 8.3304 12.6731 8.3304 12.662 8.27098C12.6537 8.22598 12.6731 8.18394 12.742 8.09776C12.7921 8.03517 12.8668 7.93787 12.9081 7.88154C13.0572 7.67799 13.2961 7.61434 13.3928 7.7524C13.4568 7.84378 13.4272 7.86991 13.3567 7.78431C13.2447 7.64843 13.0749 7.70287 12.9145 7.92614C12.8769 7.9784 12.8129 8.06241 12.7723 8.11282C12.6138 8.30912 12.7577 8.44817 13.0362 8.36794C13.233 8.31125 13.4038 8.10986 13.4038 7.93462C13.4038 7.89299 13.4114 7.87999 13.4267 7.89529C13.4915 7.96012 13.3322 8.25646 13.1942 8.32785C13.1008 8.37611 13.1276 8.39097 13.3431 8.41041C13.4453 8.41964 13.5877 8.43337 13.6594 8.44094C13.8763 8.46381 14.0416 8.38546 13.9505 8.303C13.7498 8.12133 14.1275 7.75489 14.7125 7.5638C14.8001 7.53517 14.8816 7.50278 14.8935 7.49181C14.9053 7.48084 14.9313 7.47187 14.9511 7.47187C15.0257 7.47187 15.2392 7.30646 15.4759 7.06529C15.7176 6.81908 15.8289 6.7258 15.8527 6.74956C15.8594 6.75625 15.8258 6.79054 15.778 6.82577C15.4248 7.08625 15.4101 7.18651 15.7511 7.00929C16.2467 6.75177 16.4534 6.69883 16.2929 6.87056C16.0867 7.09107 15.4057 7.41631 15.3231 7.33371C15.3058 7.3164 15.2627 7.33241 15.1742 7.38905C15.1056 7.43289 14.9481 7.50431 14.8241 7.54777C14.3987 7.69687 14.288 7.75906 14.0416 7.98719C13.2533 8.71702 17.4874 8.41328 19.8138 7.57312C20.204 7.43218 20.2785 7.34809 20.2472 7.08398C20.1935 6.63 19.3052 6.06411 19.0605 6.32796C19.0022 6.39083 18.9783 6.37343 19.0312 6.30661C19.1221 6.19159 19.3681 6.21515 19.6741 6.36821C19.8693 6.46581 19.8676 6.4658 19.8676 6.36883C19.8676 6.28412 19.8236 6.24426 19.7268 6.24116C19.6757 6.23952 19.4726 6.15689 19.5113 6.1535C19.5219 6.15257 19.5872 6.16828 19.6565 6.18841C20.1485 6.33146 20.3313 6.0845 20.095 5.59588C20.0704 5.54489 19.9996 5.30344 19.9377 5.05935C19.6132 3.77862 18.9544 2.39655 18.6683 2.39648C18.6007 2.39647 18.6021 2.39975 18.4893 1.96401C18.2957 1.21621 18.1529 0.941017 17.8769 0.783958C17.277 0.442668 17.1302 -0.177664 17.7054 0.0593767C18.9398 0.568073 20.198 2.12434 21.1165 4.27827C21.7705 5.8121 21.9422 8.41341 21.5181 10.3623C21.2208 11.7287 21.0184 13.8256 20.8009 17.7934C20.6625 20.3196 20.5834 21.4596 20.4692 22.5729C20.4383 22.8733 20.398 23.3239 20.3796 23.5743C20.2869 24.8313 20.1472 25.9983 19.9097 27.5003C19.8285 28.0138 19.8171 28.1345 19.8109 28.5473C19.7875 30.1037 19.217 30.9875 18.1351 31.1433C18.0302 31.1585 17.8112 31.2099 17.6485 31.2577C16.3294 31.6449 14.9222 31.8503 12.9942 31.9369C11.4306 32.0071 10.9784 32.0142 10.1947 31.9806ZM4.82333 29.6266C4.54256 28.4818 4.37831 27.9383 4.1808 27.5003C3.96938 27.0316 3.92134 26.9695 3.94745 27.1988C4.06749 28.2526 4.35677 29.23 4.82762 30.1725C5.0759 30.6694 5.0758 30.656 4.82333 29.6266ZM4.33115 30.3851C4.4131 30.0793 4.28204 29.4362 3.90043 28.2713C3.68277 27.6069 3.52237 27.029 3.49216 26.8005C3.47236 26.6507 3.45178 26.6381 3.36658 26.7233C3.22992 26.8599 3.27124 27.1427 3.57901 28.1771C3.66183 28.4555 3.74131 28.773 3.75564 28.8827C3.83985 29.5274 4.26416 30.6351 4.33115 30.3851ZM12.0484 26.9957C12.4637 26.7206 12.4093 25.9188 11.9579 25.6632C11.5516 25.4331 11.3333 25.9346 11.5059 26.702C11.5832 27.0463 11.7972 27.1621 12.0484 26.9957ZM10.8243 26.9351C11.134 26.7763 11.2368 26.2464 11.0428 25.8095C10.8515 25.3787 10.4677 25.597 10.3986 26.176C10.3886 26.2597 10.3649 26.4266 10.3461 26.5467C10.2785 26.9776 10.4576 27.1231 10.8243 26.9351ZM3.28856 26.1429C3.33821 25.7456 3.23524 25.1714 2.90212 23.9882C2.80763 23.6526 2.69867 23.2173 2.66 23.0209C2.53357 22.3789 2.34213 22.066 2.43459 22.6525C2.47947 22.9372 2.73283 24.2364 2.78745 24.4619C2.81777 24.5871 2.86898 24.9029 2.90126 25.1636C2.98165 25.813 3.05216 26.0702 3.19083 26.2201C3.25956 26.2944 3.27074 26.2856 3.28856 26.1429ZM8.55597 23.9468C10.2897 23.5495 10.8487 21.3815 9.48034 20.3621C8.59801 19.7047 8.04545 19.6569 6.66698 20.1188C6.38533 20.2132 6.13177 20.305 6.10352 20.3228C6.00307 20.386 5.84766 20.6101 5.84765 20.6918C5.84764 20.7337 5.80743 20.8677 5.75828 20.9896C5.1071 22.6048 6.76503 24.3572 8.55597 23.9468ZM6.35972 22.7061C5.67772 22.6042 5.53073 22.0235 6.05275 21.4933C6.43196 21.1082 6.87352 21.0749 7.19768 21.4069C7.83911 22.0639 7.33132 22.8512 6.35972 22.7061ZM15.0068 23.6276C16.1977 23.4276 16.9444 22.0585 16.4533 20.9755C15.3035 18.4395 11.1738 19.6577 12.0795 22.2657C12.4667 23.3808 13.5304 23.8756 15.0068 23.6276ZM12.6869 22.5751C12.1561 22.4444 11.9839 21.9593 12.2683 21.3958C12.624 20.6914 13.3849 20.6997 13.7603 21.4121C13.987 21.8425 13.9356 21.9859 13.5679 21.9488C13.2372 21.9155 13.1287 21.9627 13.2904 22.0697C13.4082 22.1477 13.5588 22.2833 13.5879 22.3376C13.6787 22.5073 13.0667 22.6686 12.6869 22.5751ZM7.09105 13.1655C7.18074 13.1525 7.24273 13.1224 7.35796 13.0357C7.44051 12.9736 7.56718 12.8797 7.63944 12.827C8.03673 12.5375 8.37849 12.2774 8.49913 12.173C8.65563 12.0374 8.69259 12.0125 8.69259 12.0424C8.69259 12.0541 8.6337 12.1116 8.56172 12.1701C8.48974 12.2287 8.41306 12.2911 8.39132 12.309C8.33072 12.3588 7.90423 12.6764 7.65957 12.854C7.39726 13.0444 7.39422 13.0549 7.60581 13.0398C7.90521 13.0186 7.96758 13.0032 7.95212 12.9545C7.9365 12.9053 8.02961 12.8573 8.11072 12.8728C8.14759 12.8798 8.14158 12.8856 8.08288 12.8996C8.04171 12.9094 8.01177 12.9289 8.01635 12.9429C8.02768 12.9775 8.146 12.9892 8.17644 12.9587C8.19223 12.9429 8.35226 12.9342 8.62532 12.9342C9.12694 12.9342 9.53469 12.9122 9.53469 12.8852C9.53469 12.8746 9.52006 12.8659 9.50218 12.8659C9.46573 12.8659 9.39814 12.8057 9.39814 12.7732C9.39814 12.7616 9.41862 12.7726 9.44366 12.7976C9.476 12.83 9.51952 12.8431 9.59403 12.8431C9.67432 12.8431 9.69603 12.8506 9.68671 12.8749C9.65337 12.9617 13.3421 12.9535 13.4009 12.8665C13.4297 12.824 13.4564 12.8204 13.7423 12.82C14.165 12.8196 14.3912 12.7316 14.2342 12.6288C14.2022 12.6078 14.1776 12.5697 14.1774 12.541C14.1773 12.5132 14.1522 12.4366 14.1216 12.3709C14.091 12.3052 14.0751 12.2514 14.0863 12.2514C14.1156 12.2514 14.1329 12.2852 14.1896 12.4536C14.2386 12.599 14.2429 12.6041 14.3397 12.6289C14.4366 12.6538 14.4375 12.6548 14.3711 12.6657C14.3336 12.6719 14.395 12.6772 14.5077 12.6774C14.6515 12.6777 14.6888 12.6728 14.6329 12.6611C14.589 12.6518 14.5601 12.6429 14.5686 12.6413C14.5771 12.6397 14.6637 12.6272 14.7611 12.6137C15.0686 12.5709 15.2886 12.4897 15.2971 12.4159C15.3036 12.3599 15.3131 12.3538 15.395 12.3538C15.5538 12.3538 15.5144 12.2011 15.3475 12.1698C15.2646 12.1542 15.2123 12.1077 15.2355 12.0701C15.258 12.0337 15.3835 11.9742 15.4139 11.9856C15.4292 11.9914 15.4212 12.0025 15.3953 12.0114C15.2524 12.0606 15.2423 12.0988 15.3599 12.1458C15.4536 12.1833 15.5432 12.2568 15.5432 12.2961C15.5432 12.3378 15.4019 12.479 15.3601 12.479C15.3371 12.479 15.3126 12.4882 15.3056 12.4995C15.2902 12.5244 15.0226 12.6074 14.8889 12.6287C14.6375 12.6688 14.866 12.6838 15.7262 12.6838C16.6771 12.6838 17.0731 12.661 17.1382 12.6024C17.163 12.58 17.2312 12.57 17.3588 12.57C17.4603 12.57 17.5497 12.5598 17.5575 12.5473C17.5652 12.5347 17.5902 12.5245 17.6131 12.5245C17.651 12.5245 17.6955 12.4388 17.6705 12.4137C17.6648 12.4081 17.6063 12.4147 17.5405 12.4285C17.301 12.4786 17.273 12.4823 17.273 12.463C17.273 12.4522 17.3461 12.4298 17.4354 12.4133C18.2299 12.2664 18.8393 11.8216 19.0946 11.2023C19.1301 11.1163 19.2331 10.9101 19.3235 10.744C19.8764 9.72831 20.1993 8.85065 20.1168 8.5878C20.1068 8.55611 20.0926 8.49356 20.0853 8.4488C20.0597 8.29397 20.047 8.28887 19.7765 8.32486C18.5672 8.48575 16.2173 8.72629 14.7808 8.83622C13.772 8.91342 12.3996 8.99624 12.1229 8.99662C12.0141 8.99675 12.0141 8.99675 11.6117 9.38262C11.108 9.86546 11.0658 9.86751 11.5468 9.38577C11.7448 9.18753 11.8979 9.02017 11.8872 9.01387C11.8137 8.97093 11.5408 8.92821 11.3747 8.93365C11.19 8.93969 11.1848 8.93843 11.1866 8.88813C11.1891 8.81947 11.192 8.81983 10.5247 8.80442C5.18717 8.68118 1.61064 8.49712 -0.322391 8.24622C-0.54753 8.21699 -0.570587 8.21771 -0.570587 8.25387C-0.570587 8.31716 -0.386309 8.49222 -0.240652 8.5673C-0.0573642 8.66177 -0.0546013 8.70317 -0.229457 8.73503C-0.416922 8.76918 -0.41127 8.74704 -0.33767 9.15891C-0.0424162 10.8112 0.391652 11.1852 1.30802 10.5769C1.83504 10.2271 5.2121 9.8648 7.44081 9.91896C7.82335 9.92826 8.08712 9.92428 8.21463 9.90731C8.32104 9.89314 8.46646 9.87618 8.5378 9.86963C8.60914 9.86307 8.67953 9.84322 8.69422 9.82553C8.7089 9.80783 8.75997 9.79335 8.80769 9.79335C8.85541 9.79335 8.92329 9.78151 8.95853 9.76703C9.19978 9.66794 11.0368 9.62988 11.0368 9.72398C11.0368 9.74049 10.9423 9.8306 10.723 10.0231C10.6718 10.0681 10.4065 10.2728 10.1335 10.4781C9.71951 10.7893 9.44301 11.0041 9.31848 11.1113C9.30596 11.1221 9.16908 11.2657 9.01429 11.4304C8.37773 12.1079 7.71296 12.5741 7.14166 12.7438C7.06176 12.7675 7.02939 12.7908 7.01113 12.8377C6.98037 12.9167 6.88108 13.0933 6.84996 13.1245C6.79816 13.1763 6.8235 13.213 6.90027 13.1975C6.94095 13.1892 7.0268 13.1749 7.09105 13.1655ZM1.38674 6.51924C1.38674 6.496 1.42105 6.43199 1.46297 6.37699C1.56823 6.23891 1.61434 6.14334 1.61434 6.06324C1.61434 5.97428 1.584 5.98571 2.12909 5.86924C3.34865 5.60864 3.87102 5.54166 4.80464 5.52615C9.72928 5.44438 11.1747 5.39919 12.7399 5.27809C13.1382 5.24727 13.1375 5.24707 13.2469 5.41953C13.4833 5.79229 12.8139 6.0373 11.7765 5.95776C11.6764 5.95008 11.2001 5.94083 10.7182 5.93721C9.84195 5.93062 9.84195 5.93062 9.36612 5.8348C8.67152 5.69492 8.46812 5.70304 8.26814 5.87862C8.17435 5.96097 8.20434 5.96067 7.97953 5.88143C7.41117 5.68109 6.70805 5.66883 5.57452 5.83947C5.19272 5.89694 4.7472 5.95526 4.58447 5.96905C3.73898 6.04074 2.94607 6.18726 1.9289 6.45978C1.50603 6.57308 1.38674 6.58616 1.38674 6.51924Z" fill="#D5AD2D"/>
<path d="M10.1947 31.9806C7.543 31.8671 5.69936 31.5145 4.22798 30.8393C4.01321 30.7408 4.04543 30.8067 3.8138 29.9914C3.41038 28.5715 3.10375 27.2849 2.77526 25.634C2.60873 24.7971 2.53075 24.4472 2.1462 22.8118C1.45615 19.8772 1.19407 18.5279 1.04327 17.1333C1.00508 16.7801 1.07383 16.2972 1.18186 16.1599C1.2458 16.0786 1.2471 15.871 1.18377 15.8545C1.14682 15.8448 1.13766 15.8136 1.12414 15.6514C1.11292 15.5167 1.09545 15.4435 1.06538 15.4053C1.03637 15.3684 1.02259 15.314 1.02259 15.2363C1.02259 15.1733 1.01235 15.1154 0.999828 15.1077C0.986154 15.0992 0.977069 14.9448 0.977069 14.7208C0.977069 14.4968 0.967983 14.3423 0.954309 14.3339C0.941791 14.3261 0.931549 14.3403 0.931549 14.3653C0.931549 14.6459 0.729937 14.1349 0.612411 13.5565C0.310808 12.0722 -0.184193 10.5972 -0.0703207 11.5222C-0.0302596 11.8476 0.0435642 12.1675 0.25551 12.9342C0.5045 13.8349 0.617928 14.4726 0.567289 14.6871C0.494925 14.9936 0.0273191 13.1527 -0.242185 11.5003C-0.310578 11.081 -0.413273 10.4511 -0.470395 10.1006C-0.598031 9.31743 -0.716756 8.72929 -0.878973 8.07657C-1.04134 7.42324 -1.03676 7.31727 -0.834975 7.06029C-0.41904 6.53059 0.801507 6.1188 0.933447 6.46365C1.02388 6.70001 0.75735 6.86374 0.0325434 7.0171C-0.595651 7.15001 -0.653754 7.24504 -0.312733 7.58183C0.0282104 7.91853 2.00575 8.21947 4.3455 8.2907C8.48589 8.41676 11.1151 8.45005 11.8562 8.3858C12.5882 8.32234 12.6322 8.32277 12.7546 8.39449C12.8637 8.45842 12.8637 8.45842 13.0029 8.42385C13.1422 8.38924 13.1756 8.39011 13.661 8.44103C13.7667 8.45211 13.8176 8.44493 13.9159 8.40502C14.0249 8.36076 14.0484 8.3584 14.1253 8.38395C14.2847 8.43698 15.8045 8.42168 16.3398 8.36165C17.8284 8.19473 19.5906 7.78828 20.1766 7.47666C20.2456 7.43997 20.6988 7.33013 20.9942 7.27848C21.2778 7.2289 21.4611 7.18518 21.5973 7.13466C21.7225 7.08821 21.7225 7.08821 21.7372 7.28573C21.8026 8.16384 21.7048 9.58087 21.5289 10.3054C21.4828 10.4955 21.4285 10.7987 21.3475 11.3182C21.3212 11.4872 21.2885 11.6479 21.2748 11.6752C21.261 11.7025 21.256 11.7486 21.2636 11.7776C21.2712 11.8065 21.2522 12.0351 21.2214 12.2855C21.0594 13.6029 20.9574 14.939 20.8009 17.7933C20.6625 20.3195 20.5834 21.4595 20.4692 22.5728C20.4383 22.8733 20.398 23.3239 20.3796 23.5743C20.2869 24.8312 20.1472 25.9983 19.9097 27.5003C19.8285 28.0138 19.8171 28.1344 19.8109 28.5472C19.7875 30.1036 19.217 30.9874 18.1351 31.1433C18.0302 31.1584 17.8112 31.2099 17.6485 31.2576C16.3294 31.6449 14.9222 31.8502 12.9942 31.9368C11.4306 32.0071 10.9784 32.0141 10.1947 31.9806ZM4.82333 29.6266C4.54256 28.4817 4.37831 27.9382 4.1808 27.5003C3.96938 27.0315 3.92134 26.9695 3.94745 27.1987C4.06749 28.2526 4.35677 29.23 4.82762 30.1724C5.0759 30.6694 5.0758 30.656 4.82333 29.6266ZM4.33115 30.3851C4.4131 30.0793 4.28204 29.4361 3.90043 28.2712C3.68277 27.6068 3.52237 27.029 3.49216 26.8005C3.47236 26.6507 3.45178 26.638 3.36658 26.7232C3.22992 26.8599 3.27124 27.1426 3.57901 28.1771C3.66183 28.4554 3.74131 28.7729 3.75564 28.8826C3.83985 29.5273 4.26416 30.6351 4.33115 30.3851ZM12.0484 26.9956C12.4637 26.7206 12.4093 25.9188 11.9579 25.6632C11.5516 25.433 11.3333 25.9345 11.5059 26.702C11.5832 27.0462 11.7972 27.162 12.0484 26.9956ZM10.8243 26.935C11.134 26.7762 11.2368 26.2464 11.0428 25.8094C10.8515 25.3787 10.4677 25.597 10.3986 26.1759C10.3886 26.2597 10.3649 26.4265 10.3461 26.5467C10.2785 26.9775 10.4576 27.123 10.8243 26.935ZM3.28856 26.1428C3.33821 25.7455 3.23524 25.1714 2.90212 23.9882C2.80763 23.6525 2.69867 23.2173 2.66 23.0209C2.53357 22.3789 2.34213 22.066 2.43459 22.6525C2.47947 22.9372 2.73283 24.2364 2.78745 24.4619C2.81777 24.5871 2.86898 24.9028 2.90126 25.1636C2.98165 25.8129 3.05216 26.0702 3.19083 26.2201C3.25956 26.2944 3.27074 26.2855 3.28856 26.1428ZM10.1324 25.4064C10.3642 25.2814 10.6009 25.2243 10.8868 25.2245C11.1069 25.2247 11.2728 25.2473 11.9017 25.3634C12.6692 25.5051 13.1204 25.3984 13.0672 25.0879C12.9465 24.3844 12.5888 24.23 11.4903 24.4073C10.8495 24.5107 10.3855 24.5156 10.1247 24.4216C9.91875 24.3474 9.9313 24.348 9.77841 24.4052C9.22555 24.612 9.24986 25.2711 9.81698 25.4509C9.8933 25.4751 9.95752 25.4955 9.95969 25.4962C9.96186 25.4969 10.0396 25.4565 10.1324 25.4064ZM8.55597 23.9468C10.2897 23.5495 10.8487 21.3815 9.48034 20.362C8.59801 19.7047 8.04545 19.6569 6.66698 20.1188C6.38533 20.2132 6.13177 20.3049 6.10352 20.3227C6.00307 20.3859 5.84766 20.6101 5.84765 20.6918C5.84764 20.7337 5.80743 20.8677 5.75828 20.9896C5.1071 22.6047 6.76503 24.3572 8.55597 23.9468ZM6.35972 22.706C5.67772 22.6042 5.53073 22.0235 6.05275 21.4933C6.43196 21.1082 6.87352 21.0748 7.19768 21.4069C7.83911 22.0638 7.33132 22.8511 6.35972 22.706ZM15.0068 23.6276C16.1977 23.4275 16.9444 22.0585 16.4533 20.9754C15.3035 18.4394 11.1738 19.6577 12.0795 22.2657C12.4667 23.3807 13.5304 23.8756 15.0068 23.6276ZM12.6869 22.5751C12.1561 22.4444 11.9839 21.9593 12.2683 21.3958C12.624 20.6913 13.3849 20.6996 13.7603 21.4121C13.987 21.8424 13.9356 21.9858 13.5679 21.9488C13.2372 21.9154 13.1287 21.9627 13.2904 22.0697C13.4082 22.1476 13.5588 22.2833 13.5879 22.3376C13.6787 22.5073 13.0667 22.6686 12.6869 22.5751ZM6.96152 13.1852C6.98418 13.1731 7.06659 13.1607 7.14465 13.1576C7.25898 13.1531 7.28961 13.1438 7.30219 13.1098C7.31585 13.0728 7.3491 13.0666 7.56708 13.06C7.8948 13.05 8.02464 13.0318 8.13498 12.9801C8.23352 12.934 9.18089 12.8969 9.80781 12.9147C10.9227 12.9463 13.3697 12.9144 13.4007 12.8677C13.43 12.8236 13.4535 12.8203 13.7423 12.82C14.0667 12.8197 14.1991 12.7937 14.2532 12.7198C14.2807 12.6821 14.3584 12.6797 15.4648 12.6824C16.6697 12.6853 17.0672 12.6663 17.1382 12.6024C17.163 12.58 17.2312 12.57 17.3588 12.57C17.4603 12.57 17.5497 12.5598 17.5575 12.5472C17.5665 12.5327 17.9026 12.5245 18.4912 12.5245C19.3776 12.5245 19.4116 12.5229 19.4344 12.4804C19.4548 12.4423 19.4912 12.4346 19.7026 12.4241C20.2057 12.3989 20.3337 12.3848 20.3722 12.3501C20.4017 12.3235 20.4598 12.3173 20.6327 12.3223C20.8552 12.3288 20.8552 12.3288 20.8828 12.2275C20.8979 12.1718 20.9309 12.0699 20.956 12.001C20.9924 11.9011 21.0048 11.7909 21.0174 11.4548C21.0347 10.9948 21.0507 10.8482 21.1119 10.5899C21.1609 10.3828 21.1621 9.00167 21.1138 8.4619C21.0836 8.12504 20.462 7.99852 20.0019 8.23557C19.926 8.2747 18.0832 8.49314 16.6585 8.63191C15.2179 8.77221 13.4007 8.9055 12.4252 8.9424C12.1656 8.95221 12.0058 8.96807 11.9665 8.98792C11.9149 9.01398 11.8885 9.01279 11.7844 8.97973C11.7028 8.9538 11.5841 8.94088 11.4237 8.94047C11.19 8.93987 11.1848 8.93872 11.1866 8.88812C11.1891 8.81946 11.192 8.81982 10.5247 8.80441C5.18717 8.68117 1.61064 8.49712 -0.322391 8.24621C-0.54753 8.21699 -0.570587 8.2177 -0.570587 8.25386C-0.570587 8.31715 -0.386309 8.49221 -0.240652 8.56729C-0.0573642 8.66177 -0.0546013 8.70316 -0.229457 8.73502C-0.416922 8.76918 -0.41127 8.74703 -0.33767 9.1589C-0.0424162 10.8112 0.391652 11.1852 1.30802 10.5769C1.83504 10.2271 5.2121 9.86479 7.44081 9.91895C7.82335 9.92825 8.08712 9.92427 8.21463 9.9073C8.32104 9.89313 8.46646 9.87617 8.5378 9.86962C8.60914 9.86306 8.67953 9.84321 8.69422 9.82552C8.7089 9.80782 8.75997 9.79334 8.80769 9.79334C8.85541 9.79334 8.92329 9.7815 8.95853 9.76702C9.19978 9.66793 11.0368 9.62987 11.0368 9.72397C11.0368 9.74048 10.9423 9.83059 10.723 10.0231C10.6718 10.0681 10.4065 10.2728 10.1335 10.478C9.71951 10.7893 9.44301 11.0041 9.31848 11.1113C9.30596 11.1221 9.16908 11.2657 9.01429 11.4304C8.37773 12.1079 7.71296 12.5741 7.14166 12.7438C7.06176 12.7675 7.02939 12.7908 7.01113 12.8377C6.98037 12.9167 6.88108 13.0933 6.84996 13.1244C6.78382 13.1906 6.86692 13.2359 6.96152 13.1852ZM1.38674 6.51923C1.38674 6.496 1.42105 6.43199 1.46297 6.37699C1.56823 6.23891 1.61434 6.14334 1.61434 6.06324C1.61434 5.97427 1.584 5.98571 2.12909 5.86923C3.34865 5.60864 3.87102 5.54166 4.80464 5.52615C9.72928 5.44438 11.1747 5.39919 12.7399 5.27809C13.1382 5.24727 13.1375 5.24707 13.2469 5.41953C13.4833 5.79229 12.8139 6.03729 11.7765 5.95775C11.6764 5.95008 11.2001 5.94083 10.7182 5.93721C9.84195 5.93062 9.84195 5.93062 9.36612 5.8348C8.67152 5.69492 8.46812 5.70304 8.26814 5.87862C8.17435 5.96097 8.20434 5.96067 7.97953 5.88143C7.41117 5.68109 6.70805 5.66883 5.57452 5.83947C5.19272 5.89694 4.7472 5.95526 4.58447 5.96905C3.73898 6.04074 2.94607 6.18726 1.9289 6.45978C1.50603 6.57307 1.38674 6.58615 1.38674 6.51923Z" fill="#28A8DD"/>
<path d="M10.1947 31.9806C7.543 31.8671 5.69936 31.5145 4.22798 30.8393C4.01321 30.7408 4.04543 30.8067 3.8138 29.9914C3.41038 28.5715 3.10375 27.2849 2.77526 25.634C2.60873 24.7971 2.53075 24.4472 2.1462 22.8118C1.45615 19.8772 1.19407 18.5279 1.04327 17.1333C1.00106 16.743 1.07952 16.2649 1.20666 16.1378C1.28967 16.0548 1.30061 15.8977 1.22808 15.8301C1.1949 15.7992 1.17773 15.7394 1.16218 15.6004C1.15011 15.4925 1.12656 15.396 1.10687 15.3739C1.06323 15.3248 1.04625 15.1806 1.02682 14.6942C1.01823 14.4792 1.00297 14.2952 0.992901 14.2851C0.97095 14.2633 0.932386 14.3184 0.931898 14.3724C0.929463 14.6412 0.728572 14.1282 0.612411 13.5565C0.310808 12.0722 -0.184193 10.5972 -0.0703207 11.5222C-0.0302596 11.8476 0.0435642 12.1675 0.25551 12.9342C0.5045 13.8349 0.617928 14.4726 0.567289 14.6871C0.494925 14.9936 0.0273191 13.1527 -0.242185 11.5003C-0.310578 11.081 -0.413273 10.4511 -0.470395 10.1006C-0.598031 9.31743 -0.716756 8.72929 -0.878973 8.07657C-1.04134 7.42324 -1.03676 7.31727 -0.834975 7.06029C-0.41904 6.53059 0.801507 6.1188 0.933447 6.46365C1.02388 6.70001 0.75735 6.86374 0.0325434 7.0171C-0.595651 7.15001 -0.653754 7.24504 -0.312733 7.58183C0.0282104 7.91853 2.00575 8.21947 4.3455 8.2907C8.48589 8.41676 11.1151 8.45005 11.8562 8.3858C12.5882 8.32234 12.6322 8.32277 12.7546 8.39449C12.8637 8.45842 12.8637 8.45842 13.0029 8.42385C13.1422 8.38924 13.1756 8.39011 13.661 8.44103C13.7667 8.45211 13.8176 8.44493 13.9159 8.40502C14.0249 8.36076 14.0484 8.3584 14.1253 8.38395C14.2847 8.43698 15.8045 8.42168 16.3398 8.36165C17.8284 8.19473 19.5906 7.78828 20.1766 7.47666C20.2456 7.43997 20.6988 7.33013 20.9942 7.27848C21.2778 7.2289 21.4611 7.18518 21.5973 7.13466C21.7225 7.08821 21.7225 7.08821 21.7372 7.28573C21.8026 8.16384 21.7048 9.58087 21.5289 10.3054C21.4828 10.4955 21.4285 10.7987 21.3475 11.3182C21.3212 11.4872 21.2885 11.6479 21.2748 11.6752C21.261 11.7025 21.256 11.7486 21.2636 11.7776C21.2712 11.8065 21.2522 12.0351 21.2214 12.2855C21.0594 13.6029 20.9574 14.939 20.8009 17.7933C20.6625 20.3195 20.5834 21.4595 20.4692 22.5728C20.4383 22.8733 20.398 23.3239 20.3796 23.5743C20.2869 24.8312 20.1472 25.9983 19.9097 27.5003C19.8285 28.0138 19.8171 28.1344 19.8109 28.5472C19.7875 30.1036 19.217 30.9874 18.1351 31.1433C18.0302 31.1584 17.8112 31.2099 17.6485 31.2576C16.3294 31.6449 14.9222 31.8502 12.9942 31.9368C11.4306 32.0071 10.9784 32.0141 10.1947 31.9806ZM4.82333 29.6266C4.54256 28.4817 4.37831 27.9382 4.1808 27.5003C3.96938 27.0315 3.92134 26.9695 3.94745 27.1987C4.06749 28.2526 4.35677 29.23 4.82762 30.1724C5.0759 30.6694 5.0758 30.656 4.82333 29.6266ZM4.33115 30.3851C4.4131 30.0793 4.28204 29.4361 3.90043 28.2712C3.68277 27.6068 3.52237 27.029 3.49216 26.8005C3.47236 26.6507 3.45178 26.638 3.36658 26.7232C3.22992 26.8599 3.27124 27.1426 3.57901 28.1771C3.66183 28.4554 3.74131 28.7729 3.75564 28.8826C3.83985 29.5273 4.26416 30.6351 4.33115 30.3851ZM12.0484 26.9956C12.4637 26.7206 12.4093 25.9188 11.9579 25.6632C11.5516 25.433 11.3333 25.9345 11.5059 26.702C11.5832 27.0462 11.7972 27.162 12.0484 26.9956ZM10.8243 26.935C11.134 26.7762 11.2368 26.2464 11.0428 25.8094C10.8515 25.3787 10.4677 25.597 10.3986 26.1759C10.3886 26.2597 10.3649 26.4265 10.3461 26.5467C10.2785 26.9775 10.4576 27.123 10.8243 26.935ZM3.28856 26.1428C3.33821 25.7455 3.23524 25.1714 2.90212 23.9882C2.80763 23.6525 2.69867 23.2173 2.66 23.0209C2.53357 22.3789 2.34213 22.066 2.43459 22.6525C2.47947 22.9372 2.73283 24.2364 2.78745 24.4619C2.81777 24.5871 2.86898 24.9028 2.90126 25.1636C2.98165 25.8129 3.05216 26.0702 3.19083 26.2201C3.25956 26.2944 3.27074 26.2855 3.28856 26.1428ZM10.1324 25.4064C10.3642 25.2814 10.6009 25.2243 10.8868 25.2245C11.1069 25.2247 11.2728 25.2473 11.9017 25.3634C12.6692 25.5051 13.1204 25.3984 13.0672 25.0879C12.9465 24.3844 12.5888 24.23 11.4903 24.4073C10.8495 24.5107 10.3855 24.5156 10.1247 24.4216C9.91875 24.3474 9.9313 24.348 9.77841 24.4052C9.22555 24.612 9.24986 25.2711 9.81698 25.4509C9.8933 25.4751 9.95752 25.4955 9.95969 25.4962C9.96186 25.4969 10.0396 25.4565 10.1324 25.4064ZM8.55597 23.9468C10.2897 23.5495 10.8487 21.3815 9.48034 20.362C8.57562 19.688 7.99892 19.6498 6.52551 20.1662C6.21647 20.2745 6.06946 20.3162 6.05325 20.2999C6.03704 20.2837 6.02971 20.2887 6.02971 20.3158C6.02971 20.3375 6.01521 20.3608 5.99749 20.3676C5.93026 20.3934 5.85384 20.5447 5.84935 20.6609C5.84662 20.7316 5.81165 20.8572 5.75695 20.9929C5.10709 22.6048 6.76717 24.3567 8.55597 23.9468ZM6.35972 22.706C5.67772 22.6042 5.53073 22.0235 6.05275 21.4933C6.43196 21.1082 6.87352 21.0748 7.19768 21.4069C7.83911 22.0638 7.33132 22.8511 6.35972 22.706ZM15.0068 23.6276C16.1977 23.4275 16.9444 22.0585 16.4533 20.9754C15.3035 18.4394 11.1738 19.6577 12.0795 22.2657C12.4667 23.3807 13.5304 23.8756 15.0068 23.6276ZM12.6869 22.5751C12.1561 22.4444 11.9839 21.9593 12.2683 21.3958C12.624 20.6913 13.3849 20.6996 13.7603 21.4121C13.987 21.8424 13.9356 21.9858 13.5679 21.9488C13.2372 21.9154 13.1287 21.9627 13.2904 22.0697C13.4082 22.1476 13.5588 22.2833 13.5879 22.3376C13.6787 22.5073 13.0667 22.6686 12.6869 22.5751ZM11.3625 14.7875C11.3793 14.7288 11.3713 14.7001 11.3128 14.6078C10.8655 13.9026 11.3646 12.9225 12.0711 13.1186C12.3601 13.1989 12.3611 13.3585 12.0764 13.9807C11.8075 14.5683 11.8282 14.6753 12.2103 14.6753C12.4808 14.6753 12.4683 14.694 12.4936 14.2517C12.5586 13.1151 12.9014 12.7316 13.6314 12.9785C13.8209 13.0426 13.8241 13.0464 13.8813 13.2723C14.1008 14.1386 14.4 14.3844 15.1905 14.3476C15.7512 14.3215 15.8759 14.2027 16.0906 13.49C16.2734 12.8833 16.4001 12.7346 16.7782 12.6829C16.8688 12.6705 16.989 12.6507 17.0454 12.6389C17.2842 12.589 17.5209 12.6242 17.5829 12.7189C17.6357 12.7995 17.6668 12.7633 17.6545 12.6353C17.6438 12.5245 17.6438 12.5245 18.5273 12.5245C19.378 12.5245 19.4117 12.5229 19.4344 12.4804C19.4548 12.4423 19.4912 12.4346 19.7026 12.4241C20.2057 12.3989 20.3337 12.3848 20.3722 12.3501C20.4017 12.3235 20.4598 12.3173 20.6327 12.3223C20.8552 12.3288 20.8552 12.3288 20.8828 12.2275C20.8979 12.1718 20.9309 12.0699 20.956 12.001C20.9924 11.9011 21.0048 11.7909 21.0174 11.4548C21.0347 10.9948 21.0507 10.8482 21.1119 10.5899C21.1609 10.3828 21.1621 9.00167 21.1138 8.4619C21.0836 8.12504 20.462 7.99852 20.0019 8.23557C19.926 8.2747 18.0832 8.49314 16.6585 8.63191C15.2179 8.77221 13.4007 8.9055 12.4252 8.9424C12.1656 8.95221 12.0058 8.96807 11.9665 8.98792C11.9149 9.01398 11.8885 9.01279 11.7844 8.97973C11.7028 8.9538 11.5841 8.94088 11.4237 8.94047C11.19 8.93987 11.1848 8.93872 11.1866 8.88812C11.1891 8.81946 11.192 8.81982 10.5247 8.80441C5.18717 8.68117 1.61064 8.49712 -0.322391 8.24621C-0.54753 8.21699 -0.570587 8.2177 -0.570587 8.25386C-0.570587 8.31715 -0.386309 8.49221 -0.240652 8.56729C-0.0573642 8.66177 -0.0546013 8.70316 -0.229457 8.73502C-0.416922 8.76918 -0.41127 8.74703 -0.33767 9.1589C-0.0424162 10.8112 0.391652 11.1852 1.30802 10.5769C1.74408 10.2875 3.50487 10.0506 6.03253 9.94123C8.04756 9.85406 7.59544 9.98208 4.94863 10.2481C3.64482 10.3792 3.03195 10.4638 2.39955 10.6002C2.26185 10.6299 2.07727 10.6594 1.98938 10.6658C1.22375 10.7215 0.492711 11.6435 0.876997 12.0689C0.990581 12.1946 1.15489 12.2513 1.46932 12.2732C1.60862 12.2829 1.73224 12.2967 1.74404 12.304C1.75584 12.3113 1.90303 12.3425 2.07114 12.3732C2.42919 12.4388 2.50218 12.4635 2.5182 12.5248C2.52899 12.566 2.54962 12.57 2.7522 12.57C2.95387 12.57 2.97734 12.5745 3.00666 12.6186C3.03364 12.6593 3.06767 12.6691 3.21341 12.6785C3.34509 12.6869 3.3973 12.7001 3.42639 12.7323C3.45111 12.7596 3.49581 12.7748 3.55109 12.7748C3.59848 12.7748 3.64359 12.7851 3.65133 12.7976C3.65906 12.8101 3.7179 12.8204 3.78207 12.8204C3.87176 12.8204 3.91135 12.8322 3.95321 12.8716C4.00529 12.9205 4.0274 12.9231 4.45907 12.9302C4.87042 12.9369 4.914 12.9414 4.95015 12.9814C4.99138 13.0269 5.21036 13.047 5.21036 13.0052C5.21036 12.9254 5.60324 12.8591 6.10937 12.8534C6.47228 12.8494 6.6083 12.8387 6.78034 12.8009C7.06618 12.7381 7.07564 12.7527 6.91837 13.0138C6.88067 13.0764 6.83998 13.1498 6.82795 13.177C6.81592 13.2041 6.77811 13.24 6.74394 13.2566C6.70976 13.2733 6.64119 13.3466 6.59156 13.4195C6.52286 13.5204 6.47355 13.5652 6.385 13.6071C6.00306 13.7877 5.69305 14.0949 5.89266 14.0949C5.94388 14.0949 6.01025 14.1109 6.04016 14.1305C6.08948 14.1628 6.1009 14.1628 6.1634 14.1305C6.20129 14.1109 6.2467 14.0949 6.26432 14.0949C6.28194 14.0949 6.33567 14.0309 6.38372 13.9527C6.53507 13.7062 7.16465 13.1218 7.24539 13.1528C7.269 13.1618 7.28743 13.1497 7.2995 13.117C7.31651 13.071 7.33549 13.067 7.56708 13.0597C7.86065 13.0506 8.05703 13.0284 8.09126 13.0005C8.1061 12.9885 8.17641 13.004 8.26889 13.0397C8.53203 13.1414 8.55127 13.2549 8.32565 13.3747C7.92667 13.5864 7.85912 14.0446 8.17412 14.4024C8.44557 14.7108 8.90161 14.6489 8.64347 14.3388C8.15138 13.7475 8.49612 13.253 9.53473 13.0604C10.1969 12.9377 11.1683 13.1478 10.9896 13.375C10.8344 13.5723 10.8345 13.8474 10.9899 14.4812C11.0282 14.6374 11.0596 14.789 11.0596 14.818C11.0596 14.9119 11.3349 14.8842 11.3625 14.7875H11.3625ZM14.6985 13.9724C14.0388 13.7367 14.0464 13.0086 14.7083 13.0278C14.8931 13.0331 14.9332 13.0268 15.0539 12.9732C15.5247 12.764 15.9673 13.1081 15.8305 13.577C15.75 13.8529 15.5893 13.9568 15.2018 13.9832C14.8445 14.0074 14.7934 14.0064 14.6985 13.9724ZM1.38674 6.51923C1.38674 6.496 1.42105 6.43199 1.46297 6.37699C1.56823 6.23891 1.61434 6.14334 1.61434 6.06324C1.61434 5.97427 1.584 5.98571 2.12909 5.86923C3.34865 5.60864 3.87102 5.54166 4.80464 5.52615C9.72928 5.44438 11.1747 5.39919 12.7399 5.27809C13.1382 5.24727 13.1375 5.24707 13.2469 5.41953C13.4833 5.79229 12.8139 6.03729 11.7765 5.95775C11.6764 5.95008 11.2001 5.94083 10.7182 5.93721C9.84195 5.93062 9.84195 5.93062 9.36612 5.8348C8.67152 5.69492 8.46812 5.70304 8.26814 5.87862C8.17435 5.96097 8.20434 5.96067 7.97953 5.88143C7.41117 5.68109 6.70805 5.66883 5.57452 5.83947C5.19272 5.89694 4.7472 5.95526 4.58447 5.96905C3.73898 6.04074 2.94607 6.18726 1.9289 6.45978C1.50603 6.57307 1.38674 6.58615 1.38674 6.51923Z" fill="#3698A6"/>
<path d="M10.6158 31.9923C7.62095 31.832 6.19521 31.5964 4.7097 31.0166C4.06358 30.7644 4.0619 30.7633 3.99589 30.5467C3.59578 29.2337 3.17845 27.5329 2.82968 25.7938C2.62682 24.7823 2.5568 24.4673 2.15134 22.7422C1.1228 18.3662 0.864083 16.5689 1.20657 16.1788C1.29061 16.0831 1.302 15.899 1.22814 15.8302C1.19496 15.7992 1.17779 15.7394 1.16224 15.6004C1.15017 15.4925 1.12662 15.396 1.10693 15.3739C1.0632 15.3247 1.04627 15.1804 1.02688 14.6915C1.0147 14.3845 1.004 14.2935 0.978216 14.2776C0.931788 14.249 0.90897 14.2696 0.908127 14.3409C0.905647 14.5508 0.720411 13.9975 0.612417 13.4577C0.281157 11.8018 -0.30457 10.315 -0.0565345 11.7595C-0.0157188 11.9972 0.103722 12.4728 0.279866 13.099C0.430568 13.6347 0.514937 14.0427 0.542305 14.368C0.629513 15.4047 0.0727981 13.3215 -0.217992 11.5231C-0.616473 9.05861 -0.729296 8.47599 -0.949611 7.745C-1.04472 7.42942 -0.999295 7.26442 -0.743777 6.99741C-0.206142 6.43559 1.01139 6.12277 0.922063 6.56941C0.885185 6.75379 0.641084 6.86992 0.0225464 6.99733C-0.61728 7.12913 -0.682085 7.23924 -0.326578 7.59053C-0.0464637 7.86733 1.48299 8.15649 3.25309 8.26732C3.58227 8.28792 3.96687 8.301 5.98423 8.36016C8.69997 8.43979 11.2099 8.46031 11.8448 8.40806C12.5832 8.34729 12.6683 8.34703 12.7717 8.40514C12.8547 8.45183 12.8757 8.45474 12.9692 8.43256C13.0691 8.40888 13.1459 8.41234 13.6801 8.46455C13.7874 8.47504 13.8288 8.46741 13.9335 8.41787C14.0407 8.36716 14.068 8.36239 14.1239 8.38465C14.2519 8.43571 15.8257 8.41943 16.3398 8.36172C17.8294 8.19454 19.5906 7.78826 20.1766 7.47668C20.2456 7.43999 20.6988 7.33014 20.9942 7.2785C21.2817 7.22823 21.4634 7.18522 21.5813 7.13947C21.781 7.06201 21.8282 8.11864 21.676 9.25703C21.5928 9.87915 21.5743 9.99973 21.5307 10.203C21.5052 10.322 21.4701 10.4858 21.4526 10.5672C21.2003 11.7417 20.9831 14.0766 20.7782 17.8161C20.6294 20.5311 20.5578 21.5366 20.4144 22.9257C20.3905 23.1572 20.3647 23.444 20.3571 23.5629C20.2899 24.6114 20.1391 25.8746 19.8784 27.5745C19.7975 28.1019 19.7806 28.2631 19.7913 28.4052C19.9016 29.8659 19.2274 30.9537 18.1037 31.1281C17.991 31.1456 17.7186 31.2122 17.4983 31.2762C16.385 31.5993 15.122 31.7921 13.4608 31.8927C12.3854 31.9577 10.9252 32.0089 10.6158 31.9923ZM10.5171 31.6707C10.6007 31.5872 10.3539 31.5474 9.28437 31.472C9.02776 31.4539 8.68978 31.4239 8.53331 31.4053C7.67843 31.3034 7.00106 31.2976 7.25171 31.3942C7.70604 31.5694 10.3911 31.7967 10.5171 31.6707ZM5.05109 30.4961C5.05109 30.4373 4.64475 28.8097 4.54184 28.4563C4.35195 27.8042 4.01479 26.9996 3.9314 26.9996C3.85342 26.9996 4.04689 28.1067 4.23367 28.7294C4.47992 29.5502 5.05109 30.7847 5.05109 30.4961ZM4.34854 30.4003C4.42751 30.0356 4.31308 29.4629 3.92371 28.2742C3.70967 27.6207 3.54673 27.037 3.51389 26.8062C3.49288 26.6585 3.47081 26.6306 3.40039 26.6627C3.19712 26.7553 3.22851 27.0804 3.54047 28.1133C3.62149 28.3815 3.70346 28.7042 3.72263 28.8302C3.84553 29.6383 4.27842 30.7242 4.34854 30.4003ZM12.0409 27.0257C12.4036 26.7956 12.467 26.2692 12.181 25.8626C11.7068 25.1884 11.2188 25.8522 11.5022 26.786C11.588 27.0688 11.8142 27.1694 12.0409 27.0257ZM10.8243 26.9577C11.2186 26.755 11.2847 25.9809 10.9389 25.617C10.7322 25.3995 10.4289 25.7139 10.3743 26.2022C10.3627 26.3053 10.3435 26.4321 10.3315 26.4841C10.2244 26.9481 10.44 27.1553 10.8243 26.9577ZM3.30805 26.1443C3.36097 25.802 3.25006 25.16 2.95584 24.1053C2.84293 23.7006 2.71509 23.1925 2.67176 22.9761C2.56644 22.4503 2.38822 22.0935 2.38822 22.4085C2.38822 22.5674 2.6408 23.9422 2.76341 24.4506C2.79511 24.582 2.8471 24.8995 2.87893 25.1561C2.96342 25.8371 3.01708 26.0408 3.15412 26.2009C3.25702 26.3211 3.28215 26.3119 3.30805 26.1443ZM10.1351 25.4065C10.5408 25.1839 10.8811 25.1706 11.7765 25.3426C12.9626 25.5705 13.4374 25.2267 12.8457 24.5686C12.6034 24.299 12.35 24.2699 11.4693 24.4101C10.8816 24.5037 10.3752 24.5115 10.1606 24.4305C9.89954 24.3318 9.73547 24.3661 9.53406 24.5614C9.1896 24.8954 9.41998 25.3981 9.96254 25.4963C9.96626 25.497 10.0439 25.4566 10.1351 25.4065ZM8.58398 23.9634C8.83429 23.8999 8.89793 23.8703 9.2917 23.635C10.5968 22.8548 10.5991 20.9636 9.29575 20.2118C9.20813 20.1613 9.0801 20.0867 9.01126 20.0462C8.386 19.6779 7.78532 19.6979 6.57598 20.1272C6.35692 20.2049 6.14902 20.2679 6.11397 20.2672C6.06671 20.2661 6.04481 20.2801 6.02919 20.3212C6.0176 20.3517 5.99936 20.3766 5.98866 20.3766C5.93744 20.3766 5.82492 20.5801 5.82492 20.6728C5.82492 20.7309 5.7899 20.8549 5.73508 20.9909C5.0795 22.6169 6.80298 24.4152 8.58398 23.9634ZM6.30155 22.6751C5.69675 22.5727 5.58209 22.0261 6.05941 21.5209C6.42855 21.1302 6.84214 21.0926 7.16845 21.4201C7.83391 22.088 7.31032 22.846 6.30155 22.6751ZM15.0429 23.6426C16.4886 23.3551 17.075 21.7656 16.197 20.5143C14.8627 18.6128 11.5782 19.7187 11.9712 21.9371C12.206 23.2633 13.4573 23.958 15.0429 23.6426ZM12.7076 22.5608C12.0764 22.4357 11.9608 21.6623 12.4931 21.1264C12.9625 20.6538 13.6298 20.9263 13.8472 21.6794C13.9149 21.9141 13.8729 21.9468 13.5253 21.9297C13.1244 21.91 13.0925 21.9466 13.3451 22.1361C13.5454 22.2864 13.6053 22.3628 13.5628 22.414C13.4586 22.5396 12.9986 22.6185 12.7076 22.5608ZM12.7324 17.066C12.8952 17.0593 13.0642 17.0478 13.108 17.0405C13.1518 17.0332 13.2184 17.0237 13.2559 17.0194C13.2935 17.0151 13.3703 17.0058 13.4266 16.9986C13.4829 16.9914 13.5649 16.981 13.6087 16.9754C13.6525 16.9699 13.7242 16.9596 13.768 16.9525C13.8118 16.9454 13.8784 16.9352 13.9159 16.9298C13.9851 16.9199 14.2128 16.8804 14.5646 16.8173C16.0734 16.5467 17.1257 16.0605 18.2545 15.1124C18.2873 15.0848 18.3577 15.0264 18.4108 14.9826C18.4639 14.9387 18.5506 14.8619 18.6036 14.8119C18.6565 14.7618 18.7689 14.6594 18.8534 14.5843C18.9379 14.5092 19.0607 14.3965 19.1263 14.3339C19.3613 14.1098 19.613 13.8826 19.8248 13.7033C19.8796 13.6569 19.9552 13.5927 19.9927 13.5607C20.0303 13.5286 20.1093 13.4642 20.1682 13.4174C20.2433 13.3579 20.2799 13.31 20.2904 13.2574C20.304 13.1899 20.3125 13.1831 20.3756 13.1891C20.4307 13.1945 20.4517 13.1841 20.4736 13.1409C20.489 13.1106 20.5176 13.0768 20.5373 13.0658C20.5627 13.0515 20.5731 13.0113 20.5731 12.9271C20.5731 12.8259 20.5806 12.8051 20.6243 12.786C20.6525 12.7736 20.6786 12.7419 20.6824 12.7154C20.6862 12.689 20.7135 12.6563 20.7432 12.6427C20.7875 12.6225 20.7999 12.5947 20.8131 12.486C20.8219 12.4133 20.8366 12.3436 20.8457 12.3311C20.8548 12.3185 20.8731 12.2673 20.8863 12.2173C20.8995 12.1672 20.9308 12.0699 20.9559 12.001C20.9924 11.9011 21.0048 11.7911 21.0174 11.4548C21.0347 10.9949 21.0507 10.8482 21.1119 10.59C21.1609 10.3828 21.1621 9.00169 21.1137 8.46193C21.0836 8.12506 20.462 7.99854 20.0019 8.23559C19.9259 8.27473 18.0822 8.49328 16.6585 8.63192C15.5604 8.73885 14.1536 8.84895 13.1535 8.90622C12.9094 8.9202 12.5458 8.94163 12.3455 8.95384C11.8711 8.98276 11.7906 8.98177 11.748 8.94647C11.7231 8.92579 11.6357 8.91812 11.4523 8.92052C11.2045 8.92375 11.1926 8.92179 11.2037 8.87944C11.2223 8.80834 11.1591 8.79957 10.5134 8.78374C4.86045 8.64509 1.78432 8.48625 -0.353708 8.22257C-0.592228 8.19316 -0.59328 8.19325 -0.59328 8.24325C-0.59328 8.31324 -0.401974 8.50527 -0.253311 8.58451C-0.0870163 8.67314 -0.0822483 8.69362 -0.223437 8.7128C-0.448444 8.74337 -0.441878 8.71361 -0.342109 9.2507C-0.0491238 10.8279 0.443992 11.2237 1.32652 10.5899C1.59469 10.3973 3.09525 10.138 4.4821 10.0445C5.08785 10.0037 5.20088 9.99768 6.00699 9.96341C6.93807 9.92383 7.16248 9.92151 7.13219 9.95181C7.10233 9.98167 6.2782 10.0975 5.58594 10.1691C3.55364 10.3794 3.28313 10.4137 2.54754 10.5545C2.32848 10.5965 2.05707 10.6422 1.94441 10.6562C0.724963 10.8075 0.305674 12.2071 1.45508 12.2896C1.86538 12.319 2.50202 12.4693 2.50202 12.5367C2.50202 12.5638 2.54596 12.57 2.73822 12.57C2.95423 12.57 2.97718 12.5742 3.00672 12.6187C3.0337 12.6593 3.06772 12.6692 3.21346 12.6785C3.34514 12.687 3.39735 12.7002 3.42644 12.7323C3.45116 12.7596 3.49586 12.7749 3.55115 12.7749C3.59854 12.7749 3.64364 12.7851 3.65138 12.7976C3.65912 12.8102 3.71795 12.8204 3.78212 12.8204C3.87181 12.8204 3.9114 12.8322 3.95326 12.8716C4.0053 12.9205 4.02758 12.9231 4.45544 12.9302C4.85466 12.9367 4.90809 12.9421 4.94867 12.9799C5.01113 13.0381 5.20801 13.0504 5.25914 12.9993C5.34002 12.9184 5.69424 12.861 6.09012 12.8645C6.41706 12.8675 6.78877 12.8325 6.94583 12.7841C7.052 12.7513 6.82032 13.208 6.70685 13.2551C6.67243 13.2694 6.64407 13.2927 6.64383 13.3068C6.64248 13.3869 6.50077 13.5525 6.38791 13.6058C5.41537 14.0651 5.39814 15.0639 6.35206 15.684C6.96999 16.0857 7.0852 16.1557 7.34981 16.2899C7.97296 16.6059 8.79518 16.8626 9.46645 16.9506C9.52278 16.958 9.59447 16.9686 9.62577 16.9742C9.69265 16.9862 9.86395 17.0066 10.0241 17.0216C10.0866 17.0275 10.1891 17.0375 10.2517 17.0438C10.3142 17.0501 10.46 17.0581 10.5755 17.0616C10.691 17.065 10.79 17.0723 10.7955 17.0778C10.8087 17.091 12.3538 17.0816 12.7324 17.066ZM1.40956 6.50787C1.40956 6.49089 1.44387 6.432 1.48579 6.377C1.59066 6.23943 1.63716 6.14341 1.63716 6.06438C1.63716 6.01384 1.6497 5.99437 1.68837 5.98492C2.77656 5.71895 3.86674 5.563 4.74384 5.54783C10.0867 5.45543 11.2164 5.42027 12.7211 5.29956C13.1213 5.26745 13.1288 5.26921 13.2233 5.41821C13.4673 5.80301 13.0978 5.9363 11.8107 5.92768C9.75467 5.91393 9.8963 5.92049 9.36926 5.81448C8.67554 5.67494 8.4579 5.68452 8.24538 5.86393C8.17367 5.92447 8.17367 5.92448 7.93695 5.84526C7.34884 5.64847 6.7645 5.64469 5.4949 5.82945C5.05678 5.89321 4.55962 5.95554 4.3901 5.96797C3.79956 6.01126 3.15706 6.13047 2.16226 6.38132C1.52034 6.54319 1.40956 6.56182 1.40956 6.50787Z" fill="#008ECF"/>
<path d="M10.6158 31.9923C7.62095 31.832 6.19521 31.5964 4.7097 31.0166C4.06358 30.7644 4.0619 30.7633 3.99589 30.5467C3.59578 29.2337 3.17845 27.5329 2.82968 25.7938C2.62682 24.7823 2.5568 24.4673 2.15134 22.7422C1.12534 18.377 0.863592 16.5632 1.20459 16.1816C1.31771 16.055 1.40867 16.2034 1.50883 16.6782C2.07997 19.3852 3.01346 22.9292 3.71196 25.0423C3.97324 25.8328 3.92898 25.757 4.11991 25.7409C4.31785 25.7244 4.32104 25.7312 4.22227 25.9612C4.03902 26.3878 4.12948 26.6039 4.70401 27.1121C4.94763 27.3276 4.92512 27.3908 4.62039 27.3469C4.40935 27.3165 4.42349 27.2869 4.50219 27.5938C4.53878 27.7364 4.59003 27.9555 4.61608 28.0807C5.01688 30.0067 5.41933 30.6907 6.25231 30.8616C8.8266 31.3896 11.7643 31.4807 15.6484 31.1529C17.1744 31.0241 18.3632 30.5499 18.7436 29.9183C18.8419 29.755 18.8446 29.7625 18.6821 29.7456C18.42 29.7182 18.4268 29.6546 18.7045 29.5395C19.1159 29.369 19.2443 29.2349 19.238 28.9823C19.2352 28.8727 19.2511 28.7833 19.2989 28.6395C19.4613 28.1511 19.4942 27.7721 19.4565 26.8276C19.4247 26.031 19.4343 25.7146 19.4994 25.4178C19.6 24.9594 19.6537 24.5021 19.7427 23.3467C19.803 22.5633 19.8475 22.1225 19.9013 21.7763C19.952 21.4504 19.978 21.1029 20.0147 20.2628C20.0563 19.311 20.0827 18.946 20.142 18.4989C20.2159 17.9429 20.2284 17.9012 20.3629 17.7668C20.5556 17.5741 20.5499 17.439 20.336 17.1266C20.0094 16.6498 20.0091 16.3998 20.335 16.0994C20.4598 15.9844 20.4638 15.8172 20.3681 14.7208C20.2668 13.5602 20.2687 13.1788 20.3757 13.1892C20.4307 13.1945 20.4517 13.1841 20.4736 13.1409C20.4889 13.1106 20.5176 13.0768 20.5373 13.0658C20.5627 13.0515 20.5731 13.0113 20.5731 12.9271C20.5731 12.8259 20.5806 12.8051 20.6243 12.786C20.6525 12.7736 20.6786 12.7419 20.6824 12.7154C20.6862 12.689 20.7135 12.6563 20.7432 12.6427C20.7875 12.6225 20.7999 12.5947 20.8131 12.486C20.8219 12.4133 20.8366 12.3436 20.8457 12.3311C20.8548 12.3185 20.8731 12.2673 20.8863 12.2173C20.8995 12.1672 20.9308 12.0699 20.9559 12.001C20.9924 11.9011 21.0048 11.7911 21.0174 11.4548C21.0347 10.9949 21.0507 10.8482 21.1119 10.59C21.1609 10.3828 21.1621 9.00169 21.1137 8.46193C21.0836 8.12506 20.462 7.99854 20.0019 8.23559C19.9259 8.27473 18.0822 8.49328 16.6585 8.63192C15.5604 8.73885 14.1536 8.84895 13.1535 8.90622C12.9094 8.9202 12.5458 8.94163 12.3455 8.95384C11.8711 8.98276 11.7906 8.98177 11.748 8.94647C11.7231 8.92579 11.6357 8.91812 11.4523 8.92052C11.2045 8.92375 11.1926 8.92179 11.2037 8.87944C11.2223 8.80834 11.1591 8.79957 10.5134 8.78374C4.86045 8.64509 1.78432 8.48625 -0.353708 8.22257C-0.592228 8.19316 -0.59328 8.19325 -0.59328 8.24325C-0.59328 8.31324 -0.401974 8.50527 -0.253311 8.58451C-0.0870163 8.67314 -0.0822483 8.69362 -0.223437 8.7128C-0.448444 8.74337 -0.441878 8.71361 -0.342109 9.2507C-0.0491238 10.8279 0.443992 11.2237 1.32652 10.5899C1.59469 10.3973 3.09525 10.138 4.4821 10.0445C5.08785 10.0037 5.20088 9.99768 6.00699 9.96341C6.93807 9.92383 7.16248 9.92151 7.13219 9.95181C7.10233 9.98167 6.2782 10.0975 5.58594 10.1691C3.55364 10.3794 3.28313 10.4137 2.54754 10.5545C2.32848 10.5965 2.05707 10.6422 1.94441 10.6562C0.724963 10.8075 0.305674 12.2071 1.45508 12.2896C1.65426 12.3039 2.38852 12.4426 2.45593 12.4787C2.53431 12.5206 2.51313 12.5899 2.40832 12.6345C2.31461 12.6743 2.31461 12.6743 2.40994 12.7373C2.48799 12.789 2.50035 12.8064 2.4781 12.8332C2.43673 12.883 2.4167 12.879 1.73681 12.6833C0.882563 12.4375 0.698332 12.4194 0.931611 12.6042C1.1103 12.7457 1.08679 12.8042 0.876785 12.7405C0.687272 12.683 0.698476 12.6259 0.785122 13.2073C0.806576 13.3513 0.82325 13.5075 0.822175 13.5545C0.821099 13.6014 0.835341 13.709 0.853823 13.7934C0.940006 14.1873 0.94812 14.4607 0.87048 14.3549C0.816763 14.2816 0.686984 13.8304 0.612417 13.4577C0.281157 11.8018 -0.30457 10.315 -0.0565345 11.7595C-0.0157188 11.9972 0.103722 12.4728 0.279866 13.099C0.430568 13.6347 0.514937 14.0427 0.542305 14.368C0.629513 15.4047 0.0727981 13.3215 -0.217992 11.5231C-0.616473 9.05861 -0.729296 8.47599 -0.949611 7.745C-1.04472 7.42942 -0.999295 7.26442 -0.743777 6.99741C-0.206142 6.43559 1.01139 6.12277 0.922063 6.56941C0.885185 6.75379 0.641084 6.86992 0.0225464 6.99733C-0.61728 7.12913 -0.682085 7.23924 -0.326578 7.59053C-0.0464637 7.86733 1.48299 8.15649 3.25309 8.26732C3.58227 8.28792 3.96687 8.301 5.98423 8.36016C8.69997 8.43979 11.2099 8.46031 11.8448 8.40806C12.5832 8.34729 12.6683 8.34703 12.7717 8.40514C12.8547 8.45183 12.8757 8.45474 12.9692 8.43256C13.0691 8.40888 13.1459 8.41234 13.6801 8.46455C13.7874 8.47504 13.8288 8.46741 13.9335 8.41787C14.0407 8.36716 14.068 8.36239 14.1239 8.38465C14.2519 8.43571 15.8257 8.41943 16.3398 8.36172C17.8294 8.19454 19.5906 7.78826 20.1766 7.47668C20.2456 7.43999 20.6988 7.33014 20.9942 7.2785C21.2817 7.22823 21.4634 7.18522 21.5813 7.13947C21.781 7.06201 21.8282 8.11864 21.676 9.25703C21.5928 9.87915 21.5743 9.99973 21.5307 10.203C21.5052 10.322 21.4701 10.4858 21.4526 10.5672C21.2003 11.7417 20.9831 14.0766 20.7782 17.8161C20.6294 20.5311 20.5578 21.5366 20.4144 22.9257C20.3905 23.1572 20.3647 23.444 20.3571 23.5629C20.2899 24.6114 20.1391 25.8746 19.8784 27.5745C19.7975 28.1019 19.7806 28.2631 19.7913 28.4052C19.9016 29.8659 19.2274 30.9537 18.1037 31.1281C17.991 31.1456 17.7186 31.2122 17.4983 31.2762C16.385 31.5993 15.122 31.7921 13.4608 31.8927C12.3854 31.9577 10.9252 32.0089 10.6158 31.9923ZM10.5171 31.6707C10.6007 31.5872 10.3539 31.5474 9.28437 31.472C9.02776 31.4539 8.68978 31.4239 8.53331 31.4053C7.67843 31.3034 7.00106 31.2976 7.25171 31.3942C7.70604 31.5694 10.3911 31.7967 10.5171 31.6707ZM5.05109 30.4961C5.05109 30.4373 4.64475 28.8097 4.54184 28.4563C4.35195 27.8042 4.01479 26.9996 3.9314 26.9996C3.85342 26.9996 4.04689 28.1067 4.23367 28.7294C4.47992 29.5502 5.05109 30.7847 5.05109 30.4961ZM4.34854 30.4003C4.42751 30.0356 4.31308 29.4629 3.92371 28.2742C3.70967 27.6207 3.54673 27.037 3.51389 26.8062C3.49288 26.6585 3.47081 26.6306 3.40039 26.6627C3.19712 26.7553 3.22851 27.0804 3.54047 28.1133C3.62149 28.3815 3.70346 28.7042 3.72263 28.8302C3.84553 29.6383 4.27842 30.7242 4.34854 30.4003ZM3.30805 26.1443C3.36097 25.802 3.25006 25.16 2.95584 24.1053C2.84293 23.7006 2.71509 23.1925 2.67176 22.9761C2.56644 22.4503 2.38822 22.0935 2.38822 22.4085C2.38822 22.5674 2.6408 23.9422 2.76341 24.4506C2.79511 24.582 2.8471 24.8995 2.87893 25.1561C2.96342 25.8371 3.01708 26.0408 3.15412 26.2009C3.25702 26.3211 3.28215 26.3119 3.30805 26.1443ZM8.30571 28.3963C8.27442 28.3918 8.15664 28.377 8.04398 28.3634C7.93132 28.3498 7.50628 28.2725 7.09945 28.1917C6.25392 28.0236 5.81941 27.9564 5.57394 27.9559C5.30215 27.9553 5.21276 27.8359 5.36798 27.6807C5.48174 27.5669 5.70189 27.5923 6.38287 27.7977C6.84955 27.9384 7.19709 28.023 7.40591 28.0465C7.49397 28.0564 7.66844 28.0866 7.79362 28.1135C7.98024 28.1536 9.31067 28.3197 9.44554 28.3197C9.46664 28.3197 9.48926 28.3402 9.4958 28.3652C9.50706 28.4083 8.55988 28.433 8.30571 28.3963ZM10.4565 27.3781C10.1528 27.2351 10.042 27.0199 9.97823 26.4487C9.89204 25.6773 9.77064 25.5053 9.23547 25.3963C9.10884 25.3705 9.08978 24.957 9.20375 24.708C9.32444 24.4444 9.59935 24.1408 10.0449 23.7792C10.1682 23.679 10.335 23.5334 10.4155 23.4556C10.5929 23.2841 10.6172 23.2776 11.071 23.2809C12.0899 23.2881 13.1301 24.0928 13.4467 25.1187C13.5303 25.3894 13.5212 25.4034 13.0738 25.6924C12.5185 26.0513 12.401 26.2342 12.4701 26.6319C12.5768 27.2463 12.2992 27.4361 11.5693 27.2477C11.0826 27.122 10.8594 27.1504 10.701 27.358C10.6338 27.4461 10.6059 27.4484 10.4565 27.3781ZM12.0409 27.0257C12.4036 26.7956 12.467 26.2692 12.181 25.8626C11.7068 25.1884 11.2188 25.8522 11.5022 26.786C11.588 27.0688 11.8142 27.1694 12.0409 27.0257ZM10.8243 26.9577C11.2186 26.755 11.2847 25.9809 10.9389 25.617C10.7322 25.3995 10.4289 25.7139 10.3743 26.2022C10.3627 26.3053 10.3435 26.4321 10.3315 26.4841C10.2244 26.9481 10.44 27.1553 10.8243 26.9577ZM10.1351 25.4065C10.5408 25.1839 10.8811 25.1706 11.7765 25.3426C12.9626 25.5705 13.4374 25.2267 12.8457 24.5686C12.6034 24.299 12.35 24.2699 11.4693 24.4101C10.8816 24.5037 10.3752 24.5115 10.1606 24.4305C9.89954 24.3318 9.73547 24.3661 9.53406 24.5614C9.1896 24.8954 9.41998 25.3981 9.96254 25.4963C9.96626 25.497 10.0439 25.4566 10.1351 25.4065ZM7.48453 24.291C5.88709 24.0206 4.79669 22.2461 5.4356 20.9566C5.70028 20.4223 5.95264 20.4512 5.73508 20.9909C5.0296 22.7407 7.19598 24.704 8.89984 23.859C10.5648 23.0333 10.7782 21.067 9.29575 20.2118C9.20813 20.1613 9.0801 20.0867 9.01126 20.0462C8.38831 19.6793 7.7896 19.6981 6.58736 20.1223C6.20496 20.2573 6.15938 20.2708 6.10372 20.2655C6.05372 20.2607 6.07215 20.2307 6.21759 20.0801C7.55396 18.6963 10.4459 19.6868 10.6257 21.5898C10.7831 23.2558 9.2348 24.5872 7.48453 24.291ZM14.1094 24.1166C12.0993 23.9138 10.886 21.9863 11.8286 20.4934C13.0839 18.5054 15.9752 18.7675 16.8061 20.9447C17.4232 22.5618 15.944 24.3017 14.1094 24.1166ZM15.0429 23.6426C16.4886 23.3551 17.075 21.7656 16.197 20.5143C14.8627 18.6128 11.5782 19.7187 11.9712 21.9371C12.206 23.2633 13.4573 23.958 15.0429 23.6426ZM12.7076 22.5608C12.0764 22.4357 11.9608 21.6623 12.4931 21.1264C12.9625 20.6538 13.6298 20.9263 13.8472 21.6794C13.9149 21.9141 13.8729 21.9468 13.5253 21.9297C13.1244 21.91 13.0925 21.9466 13.3451 22.1361C13.5454 22.2864 13.6053 22.3628 13.5628 22.414C13.4586 22.5396 12.9986 22.6185 12.7076 22.5608ZM6.30155 22.6751C5.69675 22.5727 5.58209 22.0261 6.05941 21.5209C6.42855 21.1302 6.84214 21.0926 7.16845 21.4201C7.83391 22.088 7.31032 22.846 6.30155 22.6751ZM1.40956 6.50787C1.40956 6.49089 1.44387 6.432 1.48579 6.377C1.59066 6.23943 1.63716 6.14341 1.63716 6.06438C1.63716 6.01384 1.6497 5.99437 1.68837 5.98492C2.77656 5.71895 3.86674 5.563 4.74384 5.54783C10.0867 5.45543 11.2164 5.42027 12.7211 5.29956C13.1213 5.26745 13.1288 5.26921 13.2233 5.41821C13.4673 5.80301 13.0978 5.9363 11.8107 5.92768C9.75467 5.91393 9.8963 5.92049 9.36926 5.81448C8.67554 5.67494 8.4579 5.68452 8.24538 5.86393C8.17367 5.92447 8.17367 5.92448 7.93695 5.84526C7.34884 5.64847 6.7645 5.64469 5.4949 5.82945C5.05678 5.89321 4.55962 5.95554 4.3901 5.96797C3.79956 6.01126 3.15706 6.13047 2.16226 6.38132C1.52034 6.54319 1.40956 6.56182 1.40956 6.50787Z" fill="#1B6F95"/>
<path d="M10.5816 31.9842C7.60531 31.8199 6.12589 31.5697 4.65893 30.9826C4.06039 30.7431 4.07097 30.7501 4.00852 30.5501C3.65341 29.4128 3.19721 27.5498 2.83071 25.7402C2.61736 24.6868 2.53929 24.3367 2.13471 22.6184C1.13214 18.3604 0.831607 16.1774 1.24796 16.1774C1.34652 16.1774 1.37554 16.2617 1.55763 17.0765C2.29145 20.3598 3.09702 23.3775 3.7526 25.2988C3.93824 25.8428 3.91031 25.8016 4.08416 25.7877C4.2686 25.7729 4.26707 25.7695 4.17304 25.9827C4.00627 26.3609 4.10957 26.6188 4.60899 27.0714C4.89013 27.3262 4.8892 27.3555 4.60131 27.3136C4.37339 27.2803 4.37707 27.2767 4.43392 27.4812C4.45946 27.5731 4.5323 27.8838 4.5958 28.1717C5.01982 30.0944 5.40344 30.7265 6.25235 30.9013C8.78235 31.4223 11.9572 31.5095 15.8846 31.1659C17.2482 31.0466 18.4993 30.497 18.8089 29.8812C18.8771 29.7455 18.8741 29.7399 18.724 29.7211C18.4886 29.6917 18.4917 29.6741 18.7523 29.5618C19.1418 29.394 19.2629 29.266 19.2674 29.017C19.2694 28.9038 19.2917 28.7868 19.3399 28.6363C19.4932 28.1579 19.5292 27.6991 19.4854 26.7834C19.452 26.0865 19.4604 25.8059 19.5238 25.4969C19.6318 24.9705 19.6856 24.4992 19.7891 23.176C19.8209 22.7692 19.8767 22.211 19.9131 21.9356C19.983 21.4081 20.017 21.0206 20.038 20.5131C20.0972 19.0829 20.1405 18.5723 20.2455 18.0681C20.274 17.9312 20.293 17.8949 20.3896 17.7927C20.6026 17.5676 20.5954 17.4504 20.3453 17.0711C20.0489 16.6216 20.0489 16.4604 20.3452 16.1365C20.4831 15.9857 20.4912 15.7181 20.3917 14.597C20.318 13.7658 20.3177 13.2252 20.3908 13.2076C20.422 13.2001 20.4597 13.1696 20.4745 13.1399C20.4893 13.1102 20.5176 13.0768 20.5373 13.0658C20.5622 13.0519 20.5731 13.0121 20.5731 12.9353C20.5731 12.8331 20.5782 12.8231 20.6414 12.8011C20.6789 12.788 20.7097 12.7611 20.7097 12.7414C20.7097 12.7218 20.734 12.6946 20.7637 12.681C20.8286 12.6514 20.8809 12.5102 20.8619 12.4155C20.8482 12.3465 20.8776 12.2169 20.9561 12.0011C20.9923 11.9013 21.0048 11.7903 21.0174 11.4548C21.0347 10.9949 21.0507 10.8482 21.1118 10.59C21.1608 10.3829 21.1621 9.00172 21.1137 8.46195C21.0835 8.12509 20.462 7.99857 20.0019 8.23562C19.9259 8.27475 18.0832 8.49319 16.6584 8.63196C15.2211 8.77195 13.4086 8.90497 12.4252 8.94263C12.2061 8.95102 12.0076 8.9648 11.9841 8.97325C11.9606 8.98169 11.8889 8.97411 11.8248 8.95639C11.6107 8.89721 11.5272 8.88673 11.3725 8.89959C11.226 8.91177 11.2189 8.91007 11.2189 8.86283C11.2189 8.78759 11.4374 8.79821 7.64564 8.68912C4.18405 8.58953 2.089 8.47266 0.282907 8.2784C-0.674922 8.17538 -0.663667 8.17477 -0.571305 8.32422C-0.507357 8.42769 -0.389188 8.52896 -0.250261 8.59936C-0.11313 8.66885 -0.120299 8.69061 -0.287193 8.71146C-0.451361 8.73197 -0.449507 8.72094 -0.366422 9.18265C-0.0669581 10.8468 0.383956 11.2274 1.3205 10.6067C1.63064 10.4011 3.01822 10.1603 4.49343 10.0559C5.41693 9.99056 6.94531 9.93231 6.91398 9.96365C6.88288 9.99474 6.0196 10.0994 4.75517 10.2254C3.64999 10.3355 2.944 10.4342 2.44507 10.5484C2.33241 10.5742 2.15143 10.6032 2.0429 10.6129C0.716356 10.7315 0.210659 12.2213 1.46403 12.3183C1.60303 12.3291 1.73212 12.344 1.7509 12.3515C1.76968 12.3589 1.91985 12.3898 2.08463 12.4202C2.50866 12.4982 2.55252 12.5305 2.35152 12.6167C2.22915 12.6691 2.22916 12.6688 2.34834 12.7457C2.50164 12.8447 2.40135 12.8363 1.98951 12.7156C0.840306 12.379 0.595225 12.3543 0.877247 12.6035C1.01037 12.7212 1.00357 12.7388 0.843182 12.6918C0.759449 12.6673 0.71505 12.6637 0.698637 12.6801C0.673583 12.7051 0.731939 13.1573 0.897413 14.2201C0.953844 14.5826 0.740429 14.0458 0.657192 13.6159C0.397589 12.2751 -0.0129995 10.9976 -0.125713 11.18C-0.178144 11.2649 -0.0258753 12.0436 0.204266 12.8675C0.438775 13.7071 0.544646 14.2264 0.544646 14.537C0.544646 15.056 0.0372753 13.0231 -0.20472 11.5345C-0.255596 11.2216 -0.353024 10.6224 -0.421228 10.2031C-0.56755 9.30342 -0.672763 8.76802 -0.810342 8.22298C-0.943527 7.69534 -0.937811 7.71533 -0.965711 7.67985C-1.05641 7.56451 -0.95945 7.24743 -0.76578 7.02603C-0.296373 6.48943 0.9088 6.15007 0.9088 6.5545C0.9088 6.73286 0.653177 6.85503 -0.012964 6.99503C-0.637422 7.12628 -0.692407 7.23586 -0.323949 7.61483C-0.205138 7.73703 -0.156464 7.75541 0.408089 7.89121C1.54169 8.16388 2.70566 8.28246 4.77793 8.33636C5.27238 8.34922 6.01492 8.37022 6.428 8.38302C8.56079 8.44913 10.9633 8.46959 11.6513 8.4275C12.5274 8.37391 12.6914 8.37226 12.7884 8.41603C12.8673 8.4516 12.8921 8.45321 12.9803 8.42851C13.036 8.41291 13.0942 8.40795 13.1097 8.4175C13.1251 8.42705 13.2309 8.44333 13.3448 8.45369C13.4586 8.46405 13.6 8.47883 13.659 8.48653C13.7696 8.50097 13.944 8.45405 14.0208 8.38917C14.0498 8.36472 14.0713 8.36373 14.1233 8.38445C14.2519 8.43574 15.8241 8.41963 16.3398 8.36175C17.8294 8.19456 19.5906 7.78829 20.1765 7.4767C20.2452 7.4402 20.6969 7.33062 20.9941 7.27834C21.3338 7.21862 21.4264 7.197 21.5474 7.14914C21.6372 7.11366 21.6749 7.10798 21.694 7.12706C21.7572 7.19026 21.7694 8.48284 21.7106 8.89438C21.6981 8.98201 21.6673 9.22269 21.6421 9.42923C21.6168 9.63578 21.5505 10.0301 21.4947 10.3055C21.4103 10.7221 21.2844 11.4662 21.2425 11.7962C21.057 13.2591 20.9273 14.8594 20.7897 17.3837C20.6212 20.477 20.5601 21.352 20.4035 22.9143C20.3734 23.2147 20.3422 23.5681 20.3342 23.6995C20.2778 24.6216 20.1218 25.9142 19.8665 27.5735C19.7907 28.0663 19.7765 28.2145 19.7765 28.5114C19.7765 30.0895 19.2079 30.9577 18.0686 31.1192C17.9754 31.1325 17.8031 31.174 17.6857 31.2117C16.4634 31.6032 14.6788 31.8501 12.5162 31.9268C12.3097 31.9341 12.0229 31.9496 11.8789 31.9612C11.4991 31.9918 10.9091 32.0023 10.5816 31.9842ZM10.5056 31.6867C10.7363 31.599 10.3677 31.5308 9.28337 31.4605C9.08881 31.4479 8.75389 31.4174 8.53909 31.3929C7.59677 31.2852 7.00921 31.283 7.2054 31.388C7.53065 31.5621 10.1983 31.8036 10.5056 31.6867ZM5.07381 30.527C5.07381 30.1285 4.3049 27.6055 4.03523 27.1191C3.73688 26.581 4.01986 28.2517 4.39856 29.2642C4.69128 30.0468 5.07381 30.7622 5.07381 30.527ZM4.37098 30.2897C4.3816 29.7506 4.31821 29.4548 3.94623 28.3083C3.68554 27.5048 3.61654 27.2625 3.54855 26.9116C3.48882 26.6034 3.45884 26.5702 3.3475 26.6887C3.19709 26.8488 3.22634 27.1014 3.50254 28.0275C3.66554 28.5741 3.71477 28.7772 3.74161 29.0138C3.78665 29.411 4.10419 30.2798 4.27247 30.4663C4.32912 30.5291 4.36762 30.4601 4.37098 30.2897ZM3.3075 26.2581C3.4021 26.0116 3.27766 25.2137 2.97635 24.135C2.77583 23.417 2.7049 23.1306 2.65178 22.8243C2.59416 22.4921 2.42398 22.1852 2.37788 22.3305C2.35257 22.4102 2.65088 24.089 2.7627 24.4961C2.78161 24.5649 2.82352 24.8312 2.85582 25.0878C2.96868 25.9843 3.19126 26.561 3.3075 26.2581ZM8.39671 28.3723C8.1658 28.3548 7.6226 28.2638 7.06527 28.1493C6.35846 28.0041 6.09983 27.9625 5.67694 27.9261C5.3583 27.8986 5.3583 27.8986 5.35161 27.8304C5.32884 27.5981 5.57016 27.5975 6.34841 27.8281C6.93984 28.0033 7.11062 28.0454 7.29287 28.0608C7.38049 28.0683 7.529 28.0939 7.62288 28.1177C7.8058 28.1642 8.24378 28.2264 8.795 28.2843C9.27077 28.3342 9.32964 28.3444 9.27295 28.3668C9.22896 28.3842 8.60543 28.3881 8.39671 28.3723ZM10.4565 27.3375C10.1681 27.1886 10.0712 26.9829 10.002 26.3734C9.94895 25.9059 9.90434 25.7589 9.77043 25.6107C9.6699 25.4994 9.5059 25.411 9.364 25.3915C8.85589 25.3219 9.18213 24.5506 10.0126 23.8579C10.1691 23.7274 10.365 23.5573 10.4479 23.4798C10.6248 23.3146 10.6784 23.2995 11.071 23.3042C12.0491 23.3162 13.0738 24.1106 13.4025 25.1121C13.4908 25.3808 13.4953 25.3741 13.012 25.6874C12.4691 26.0395 12.3499 26.2594 12.4497 26.7249C12.5502 27.1936 12.2023 27.3956 11.6058 27.2149C11.1827 27.0867 10.8333 27.127 10.6903 27.3204C10.6328 27.3981 10.5812 27.4019 10.4565 27.3375ZM11.9633 27.0788C12.5989 26.8132 12.3879 25.4524 11.7302 25.5758C11.3485 25.6474 11.2837 26.7983 11.648 27.0369C11.7662 27.1144 11.8511 27.1256 11.9633 27.0788ZM10.8084 26.9732C11.2331 26.7908 11.3096 25.921 10.9302 25.5879C10.7475 25.4274 10.448 25.6853 10.3887 26.0542C10.3826 26.0922 10.3569 26.2479 10.3317 26.4002C10.2314 27.0045 10.3641 27.164 10.8084 26.9732ZM10.156 25.4081C10.5443 25.1963 10.8864 25.1816 11.7125 25.3415C12.5383 25.5013 13.1077 25.4333 13.0893 25.1771C13.0704 24.9133 12.9566 24.6388 12.8143 24.5139C12.5414 24.2742 12.3127 24.264 11.1734 24.4402C10.7157 24.511 10.2493 24.4815 10.0294 24.3678C9.89223 24.2969 9.55871 24.4606 9.43676 24.6588C9.15908 25.1101 9.68937 25.6626 10.156 25.4081ZM7.56791 24.2676C5.86116 23.9992 4.71003 22.0344 5.55017 20.8235C5.79893 20.465 5.89481 20.5499 5.72683 20.98C5.01362 22.806 7.19977 24.7335 8.96614 23.836C10.6453 22.9829 10.7651 21.0011 9.18985 20.1352C9.08534 20.0778 8.94863 20.0013 8.88604 19.9653C8.36171 19.6633 7.6963 19.7144 6.47742 20.1503C6.06318 20.2984 6.05344 20.2932 6.29714 20.0537C7.18418 19.1823 8.95037 19.3071 9.94744 20.3116C11.5672 21.9435 9.94449 24.6413 7.56791 24.2676ZM14.1776 24.0833C12.2704 23.9213 11.0108 22.1707 11.7482 20.7066C12.8958 18.4283 16.159 18.7827 16.8696 21.2629C17.2703 22.6617 15.7834 24.2196 14.1776 24.0833ZM14.5238 23.6952C16.4881 23.7516 17.3382 21.5467 15.8955 20.1376C14.8634 19.1295 12.809 19.4352 12.1539 20.6943C11.4494 22.0485 12.5585 23.8067 14.0525 23.7039C14.1776 23.6953 14.3898 23.6914 14.5238 23.6952ZM12.6365 22.5285C12.1478 22.3758 12.0204 21.8331 12.3525 21.3193C12.7802 20.6575 13.5363 20.8114 13.8134 21.6167C13.9112 21.9011 13.8807 21.9358 13.5529 21.9135C13.1406 21.8854 13.0623 21.9461 13.2957 22.1129C13.5709 22.3095 13.62 22.3944 13.496 22.4585C13.3106 22.5544 12.8415 22.5926 12.6365 22.5285ZM6.45076 22.6763C5.83977 22.6165 5.6278 22.2953 5.87201 21.7992C6.1531 21.2282 6.78861 21.0426 7.16474 21.4215C7.77903 22.0405 7.36625 22.7659 6.45076 22.6763ZM1.42226 6.51823C1.41528 6.50693 1.45527 6.43689 1.51112 6.36259C1.61987 6.21792 1.65987 6.13429 1.65987 6.05159C1.65987 6.00219 1.68636 5.99438 2.23455 5.8821C3.78193 5.56517 3.56085 5.5813 7.25873 5.51561C10.0791 5.46551 11.5676 5.40934 12.7887 5.30695C13.1208 5.27909 13.2084 5.31914 13.2644 5.52462C13.3564 5.86187 13.0888 5.91376 11.2872 5.908C9.75546 5.9031 9.99925 5.92149 9.05674 5.73978C8.66226 5.66373 8.38753 5.70252 8.25093 5.85356C8.19589 5.91442 8.17439 5.91373 7.98373 5.84496C7.64261 5.72191 7.40212 5.68779 6.88319 5.6888C6.38601 5.68978 6.3251 5.69596 5.25588 5.85391C4.99927 5.89182 4.65105 5.93364 4.48206 5.94685C3.74871 6.00419 2.98841 6.14844 1.84451 6.44728C1.46964 6.54521 1.44183 6.54989 1.42226 6.51823Z" fill="#0C0E0E"/>
</svg>
