<svg width="68" height="32" viewBox="0 0 68 32" fill="none" xmlns="http://www.w3.org/2000/svg">
<path d="M20.2854 29.3136C20.2854 29.3136 22.3749 29.1345 22.3749 26.4362C22.3749 23.7378 19.8437 23.4871 19.8437 23.4871H15.2827V32H17.5751V29.9464L19.5571 32H22.948L20.2854 29.3136ZM19.4019 27.5704H17.5751V25.6243H19.4138C19.4138 25.6243 19.9272 25.8153 19.9272 26.5914C19.9272 27.3674 19.4019 27.5704 19.4019 27.5704ZM28.0342 23.5468H25.706C24.0464 23.5468 23.4852 25.0512 23.4852 25.7675V32H25.8135V30.5076H27.9984V32H30.255V25.7675C30.255 23.9527 28.6074 23.5468 28.0342 23.5468ZM27.9984 28.0958H25.8015V26.0302C25.8015 26.0302 25.8015 25.5646 26.5299 25.5646H27.3298C27.9745 25.5646 27.9865 26.0302 27.9865 26.0302V28.0958H27.9984ZM31.3176 23.5468H33.7414V32H31.3176V23.5468ZM37.1442 29.8151V23.5468H34.7324V29.8151V32H37.1442H40.4037V29.8151H37.1442ZM41.2037 29.839V32H45.1079C45.9079 32 47.2809 31.415 47.3287 29.7793V28.9435C47.3287 27.5465 46.1825 26.7227 45.1079 26.7227H43.1618V25.7198H47.0183V23.5468H43.317C42.3618 23.5468 41.0843 24.3348 41.0843 25.8034V26.5555C41.0843 28.0241 42.3499 28.7763 43.317 28.7763C46.0034 28.7883 42.6722 28.7763 45.1557 28.7763V29.827L41.2037 29.839Z" fill="#CC0000"/>
<path d="M0.835774 31.988H10.2681C10.2681 31.988 8.4652 23.7616 14.435 20.4305C15.7364 19.7976 19.8795 17.4336 26.6612 22.4483C26.8761 22.2692 27.0791 22.1259 27.0791 22.1259C27.0791 22.1259 20.8705 15.9292 13.9574 16.6217C10.483 16.9321 6.20861 20.0961 3.70129 24.275C1.19396 28.4539 0.835774 31.988 0.835774 31.988ZM20.4884 17.2903L20.5362 16.4904C20.4287 16.4307 20.1302 16.2874 19.378 16.0725L19.3303 16.8605C19.7243 16.9918 20.1063 17.1351 20.4884 17.2903ZM19.3541 19.8215L19.3064 20.5737C19.7004 20.5857 20.0944 20.6334 20.4884 20.717L20.5362 19.9767C20.1302 19.8932 19.7362 19.8454 19.3541 19.8215ZM14.9365 16.0964H15.0559L14.8171 15.368C14.447 15.368 14.0649 15.3919 13.6709 15.4397L13.8977 16.1441C14.244 16.1083 14.5902 16.0964 14.9365 16.0964ZM15.5096 20.4901L15.7842 21.314C16.1304 21.1468 16.4767 21.0036 16.8229 20.8961L16.5603 20.1081C16.1543 20.2275 15.8081 20.3588 15.5096 20.4901ZM10.089 17.35L9.5517 16.5262C9.25321 16.6814 8.94278 16.8486 8.62041 17.0396L9.16964 17.8754C9.48007 17.6843 9.77856 17.5052 10.089 17.35ZM12.5366 22.7229L13.1097 23.5825C13.3127 23.284 13.5515 23.0094 13.8142 22.7348L13.2769 21.9229C13.0023 22.1736 12.7515 22.4483 12.5366 22.7229ZM10.8054 26.5674L11.7725 27.3316C11.8202 26.8659 11.9038 26.4003 12.0232 25.9346L11.1636 25.2541C11.0083 25.6958 10.9009 26.1376 10.8054 26.5674ZM5.57581 20.8961L4.72809 20.1558C4.41766 20.4543 4.11917 20.7528 3.84456 21.0513L4.76391 21.8393C5.01464 21.517 5.28926 21.1946 5.57581 20.8961ZM1.97004 26.2331L0.596981 25.7317C0.370129 26.2451 0.119396 26.842 0 27.1644L1.37306 27.6659C1.52827 27.2599 1.779 26.6749 1.97004 26.2331ZM10.6263 29.6001C10.6501 30.2329 10.7098 30.7463 10.7695 31.1045L12.2023 31.6179C12.0948 31.1523 11.9874 30.6269 11.9158 30.0657L10.6263 29.6001Z" fill="#CC0000"/>
<g clip-path="url(#clip0_2360_23031)">
<path fill-rule="evenodd" clip-rule="evenodd" d="M57.1971 18.9013L42.8732 22.6032L59.0015 26.1283L64.8565 10.5343L57.1971 18.9013Z" fill="url(#paint0_linear_2360_23031)"/>
<path fill-rule="evenodd" clip-rule="evenodd" d="M59.0306 26.125L60.3991 16.3471L55.2747 20.16L59.0306 26.125Z" fill="url(#paint1_linear_2360_23031)"/>
<path fill-rule="evenodd" clip-rule="evenodd" d="M59.049 26.1303L49.317 22.4529L42.9321 22.5981L59.049 26.1303Z" fill="url(#paint2_linear_2360_23031)"/>
<path fill-rule="evenodd" clip-rule="evenodd" d="M42.9455 22.6043L47.8032 15.1771L41.988 14.756L42.9455 22.6043Z" fill="url(#paint3_linear_2360_23031)"/>
<path fill-rule="evenodd" clip-rule="evenodd" d="M55.2659 20.1867L55.5837 10.5542L47.2468 14.7905L55.2659 20.1867Z" fill="url(#paint4_linear_2360_23031)"/>
<path fill-rule="evenodd" clip-rule="evenodd" d="M63.5723 13.0138L58.85 6.15531L55.5046 11.2291L63.5723 13.0138Z" fill="url(#paint5_linear_2360_23031)"/>
<path fill-rule="evenodd" clip-rule="evenodd" d="M62.671 5.31044L58.4435 6.2643L56.7387 3.5564L62.671 5.31044Z" fill="url(#paint6_linear_2360_23031)"/>
<path fill-rule="evenodd" clip-rule="evenodd" d="M39.7526 17.0711L42.0875 14.732L41.8171 11.058L39.7526 17.0711Z" fill="url(#paint7_linear_2360_23031)"/>
<path fill-rule="evenodd" clip-rule="evenodd" d="M41.7654 10.9295L41.9831 14.813L47.731 15.1712L55.5561 11.237L58.9002 6.22025L56.7246 3.49144L51.5641 3.88009C49.7013 4.81761 46.0714 6.68886 45.954 6.70978C45.8374 6.73211 43.0833 9.57472 41.7654 10.9295Z" fill="white"/>
<path fill-rule="evenodd" clip-rule="evenodd" d="M47.9656 5.86932C52.0597 3.64231 56.6978 2.97181 57.8089 5.0152C58.919 7.05832 56.1319 10.4289 52.0381 12.6548C47.9443 14.8807 43.3271 15.6686 42.2171 13.6255C41.1058 11.5832 43.8718 8.09524 47.9656 5.86932Z" fill="url(#paint8_linear_2360_23031)"/>
<path fill-rule="evenodd" clip-rule="evenodd" d="M42.9464 22.6011L47.7922 15.1423L55.2246 20.1595C51.4523 22.0772 47.4724 23.4684 42.9464 22.6011Z" fill="url(#paint9_linear_2360_23031)"/>
<path fill-rule="evenodd" clip-rule="evenodd" d="M55.5716 11.224L55.2525 20.1722C58.4855 18.2886 61.5215 16.1358 63.6165 12.9903L55.5716 11.224Z" fill="url(#paint10_linear_2360_23031)"/>
<path fill-rule="evenodd" clip-rule="evenodd" d="M63.5827 13.0262C65.164 10.7292 66.4186 7.13906 62.6437 5.30725L58.8614 6.15983L63.5827 13.0262Z" fill="url(#paint11_linear_2360_23031)"/>
<path fill-rule="evenodd" clip-rule="evenodd" d="M39.7633 17.0345C38.6602 21.2637 41.6688 22.2062 42.9474 22.6179L41.9914 14.7967L39.7633 17.0345Z" fill="#9E1209"/>
<path fill-rule="evenodd" clip-rule="evenodd" d="M55.5796 11.2404C57.1423 12.9631 60.2941 16.4266 60.3592 16.4924C60.4603 16.5956 62.7638 14.389 63.5472 12.9913L55.5796 11.2404Z" fill="url(#paint12_radial_2360_23031)"/>
<path fill-rule="evenodd" clip-rule="evenodd" d="M47.7889 15.1412L49.2379 22.4674C51.4968 21.9765 53.3996 21.1314 55.2007 20.1572L47.7889 15.1412Z" fill="url(#paint13_radial_2360_23031)"/>
<path fill-rule="evenodd" clip-rule="evenodd" d="M41.976 14.8015L39.8896 20.2332C40.4215 21.6948 41.6048 22.1525 42.9052 22.4287C42.6506 19.8684 42.1433 14.7495 41.976 14.8015Z" fill="url(#paint14_linear_2360_23031)"/>
<path fill-rule="evenodd" clip-rule="evenodd" d="M58.838 6.16818L65.1262 8.99421C65.2074 7.40987 64.4111 6.14075 62.6667 5.30917L58.838 6.16818Z" fill="url(#paint15_linear_2360_23031)"/>
</g>
<defs>
<linearGradient id="paint0_linear_2360_23031" x1="56.7458" y1="28.7409" x2="54.5492" y2="19.4599" gradientUnits="userSpaceOnUse">
<stop stop-color="#FB7655"/>
<stop offset="0.41" stop-color="#E42B1E"/>
<stop offset="0.99" stop-color="#990000"/>
<stop offset="1" stop-color="#990000"/>
</linearGradient>
<linearGradient id="paint1_linear_2360_23031" x1="60.9404" y1="22.7006" x2="56.2585" y2="17.1059" gradientUnits="userSpaceOnUse">
<stop stop-color="#871101"/>
<stop offset="0.99" stop-color="#911209"/>
<stop offset="1" stop-color="#911209"/>
</linearGradient>
<linearGradient id="paint2_linear_2360_23031" x1="54.2699" y1="28.2829" x2="49.5881" y2="22.6885" gradientUnits="userSpaceOnUse">
<stop stop-color="#871101"/>
<stop offset="0.99" stop-color="#911209"/>
<stop offset="1" stop-color="#911209"/>
</linearGradient>
<linearGradient id="paint3_linear_2360_23031" x1="44.895" y1="14.9711" x2="44.0929" y2="21.0936" gradientUnits="userSpaceOnUse">
<stop stop-color="white"/>
<stop offset="0.23" stop-color="#E57252"/>
<stop offset="0.46" stop-color="#DE3B20"/>
<stop offset="0.99" stop-color="#A60003"/>
<stop offset="1" stop-color="#A60003"/>
</linearGradient>
<linearGradient id="paint4_linear_2360_23031" x1="52.6882" y1="11.3022" x2="51.2815" y2="17.3796" gradientUnits="userSpaceOnUse">
<stop stop-color="white"/>
<stop offset="0.23" stop-color="#E4714E"/>
<stop offset="0.56" stop-color="#BE1A0D"/>
<stop offset="0.99" stop-color="#A80D00"/>
<stop offset="1" stop-color="#A80D00"/>
</linearGradient>
<linearGradient id="paint5_linear_2360_23031" x1="59.7994" y1="7.37421" x2="59.5478" y2="11.9498" gradientUnits="userSpaceOnUse">
<stop stop-color="white"/>
<stop offset="0.18" stop-color="#E46342"/>
<stop offset="0.4" stop-color="#C82410"/>
<stop offset="0.99" stop-color="#A80D00"/>
<stop offset="1" stop-color="#A80D00"/>
</linearGradient>
<linearGradient id="paint6_linear_2360_23031" x1="57.2011" y1="4.98157" x2="62.1103" y2="4.08465" gradientUnits="userSpaceOnUse">
<stop stop-color="white"/>
<stop offset="0.54" stop-color="#C81F11"/>
<stop offset="0.99" stop-color="#BF0905"/>
<stop offset="1" stop-color="#BF0905"/>
</linearGradient>
<linearGradient id="paint7_linear_2360_23031" x1="41.5723" y1="12.3846" x2="40.8982" y2="16.0191" gradientUnits="userSpaceOnUse">
<stop stop-color="white"/>
<stop offset="0.31" stop-color="#DE4024"/>
<stop offset="0.99" stop-color="#BF190B"/>
<stop offset="1" stop-color="#BF190B"/>
</linearGradient>
<linearGradient id="paint8_linear_2360_23031" x1="37.8426" y1="16.1662" x2="59.3836" y2="3.93543" gradientUnits="userSpaceOnUse">
<stop stop-color="#BD0012"/>
<stop offset="0.07" stop-color="white"/>
<stop offset="0.17" stop-color="white"/>
<stop offset="0.27" stop-color="#C82F1C"/>
<stop offset="0.33" stop-color="#820C01"/>
<stop offset="0.46" stop-color="#A31601"/>
<stop offset="0.72" stop-color="#B31301"/>
<stop offset="0.99" stop-color="#E82609"/>
<stop offset="1" stop-color="#E82609"/>
</linearGradient>
<linearGradient id="paint9_linear_2360_23031" x1="50.0447" y1="21.5793" x2="45.4081" y2="18.8943" gradientUnits="userSpaceOnUse">
<stop stop-color="#8C0C01"/>
<stop offset="0.54" stop-color="#990C00"/>
<stop offset="0.99" stop-color="#A80D0E"/>
<stop offset="1" stop-color="#A80D0E"/>
</linearGradient>
<linearGradient id="paint10_linear_2360_23031" x1="60.3672" y1="18.0785" x2="57.0861" y2="12.8113" gradientUnits="userSpaceOnUse">
<stop stop-color="#7E110B"/>
<stop offset="0.99" stop-color="#9E0C00"/>
<stop offset="1" stop-color="#9E0C00"/>
</linearGradient>
<linearGradient id="paint11_linear_2360_23031" x1="64.1191" y1="11.2553" x2="62.5957" y2="8.24965" gradientUnits="userSpaceOnUse">
<stop stop-color="#79130D"/>
<stop offset="0.99" stop-color="#9E120B"/>
<stop offset="1" stop-color="#9E120B"/>
</linearGradient>
<radialGradient id="paint12_radial_2360_23031" cx="0" cy="0" r="1" gradientUnits="userSpaceOnUse" gradientTransform="translate(57.755 13.0883) rotate(16.2113) scale(5.66298)">
<stop stop-color="#A80D00"/>
<stop offset="0.99" stop-color="#7E0E08"/>
<stop offset="1" stop-color="#7E0E08"/>
</radialGradient>
<radialGradient id="paint13_radial_2360_23031" cx="0" cy="0" r="1" gradientUnits="userSpaceOnUse" gradientTransform="translate(48.1408 18.0649) rotate(16.2113) scale(7.52817)">
<stop stop-color="#A30C00"/>
<stop offset="0.99" stop-color="#800E08"/>
<stop offset="1" stop-color="#800E08"/>
</radialGradient>
<linearGradient id="paint14_linear_2360_23031" x1="41.4004" y1="22.1464" x2="41.3759" y2="15.5115" gradientUnits="userSpaceOnUse">
<stop stop-color="#8B2114"/>
<stop offset="0.43" stop-color="#9E100A"/>
<stop offset="0.99" stop-color="#B3100C"/>
<stop offset="1" stop-color="#B3100C"/>
</linearGradient>
<linearGradient id="paint15_linear_2360_23031" x1="61.107" y1="5.91298" x2="64.6271" y2="8.8697" gradientUnits="userSpaceOnUse">
<stop stop-color="#B31000"/>
<stop offset="0.44" stop-color="#910F08"/>
<stop offset="0.99" stop-color="#791C12"/>
<stop offset="1" stop-color="#791C12"/>
</linearGradient>
<clipPath id="clip0_2360_23031">
<rect width="22.2808" height="22.2189" fill="white" transform="translate(44.7159) rotate(16.2113)"/>
</clipPath>
</defs>
</svg>
