<svg width="31" height="32" viewBox="0 0 31 32" fill="none" xmlns="http://www.w3.org/2000/svg">
<path d="M28.1 1.68245C27.6518 2.75704 27.078 3.77479 26.3905 4.71445C24.8897 3.20737 23.1042 2.01368 21.138 1.20278C19.1717 0.391879 17.0639 -0.0200521 14.937 -0.00906314C12.8101 0.00192579 10.7067 0.435615 8.74891 1.26679C6.79114 2.09796 5.01813 3.31004 3.53297 4.83254C2.04782 6.35505 0.88014 8.15761 0.0978357 10.1354C-0.684469 12.1132 -1.06579 14.2268 -1.02397 16.3533C-0.982138 18.4798 -0.517994 20.5768 0.34148 22.5223C1.20095 24.4678 2.43861 26.223 3.98249 27.6859L4.57549 28.2094C6.83843 30.1162 9.58474 31.3598 12.5106 31.8027C15.4364 32.2455 18.4277 31.8704 21.1536 30.7187C23.8795 29.567 26.2336 27.6837 27.9556 25.2772C29.6776 22.8706 30.7002 20.0346 30.9105 17.0829C31.348 12.9979 30.1485 7.82795 28.1005 1.68295L28.1 1.68245ZM6.26499 27.7789C6.09424 27.9899 5.86473 28.1455 5.60552 28.2261C5.34631 28.3066 5.06904 28.3084 4.80878 28.2313C4.54853 28.1542 4.317 28.0017 4.14348 27.7929C3.96995 27.5842 3.86224 27.3287 3.83396 27.0588C3.80569 26.7888 3.85812 26.5165 3.98463 26.2764C4.11113 26.0362 4.30603 25.839 4.54465 25.7096C4.78328 25.5803 5.05491 25.5246 5.32518 25.5497C5.59546 25.5748 5.85222 25.6794 6.06299 25.8504C6.34531 26.0795 6.52516 26.4113 6.56303 26.7729C6.60091 27.1345 6.49371 27.4963 6.26499 27.7789ZM28.034 22.9739C24.074 28.2489 15.619 26.4689 10.198 26.7249C10.198 26.7249 9.23699 26.7814 8.26949 26.9399C8.26949 26.9399 8.63449 26.7849 9.10099 26.6084C12.908 25.2834 14.7075 25.0284 17.02 23.8384C21.374 21.6249 25.681 16.7774 26.576 11.7384C24.9195 16.5859 19.8895 20.7544 15.311 22.4474C12.173 23.6039 6.50399 24.7304 6.50399 24.7304L6.27549 24.6079C2.41849 22.7329 2.29949 14.3794 9.31399 11.6854C12.3855 10.5024 15.324 11.1519 18.641 10.3604C22.183 9.51895 26.281 6.86545 27.9485 3.40245C29.8135 8.94245 32.0605 17.6134 28.0315 22.9774L28.034 22.9739Z" fill="#68BD45"/>
</svg>
